<svg id="draw.id" fill="hsla(240,8%,12%,1)" overflow="visible" stroke="hsla(0,0%,75%,1)" v:layers="{&quot;default&quot;:{&quot;name&quot;:&quot;Default&quot;,&quot;print&quot;:0,&quot;display&quot;:1,&quot;publish&quot;:0}}" v:ver="2" x="500.5" xmlns="http://www.w3.org/2000/svg" xmlns:v="http://vecta.io" xmlns:xlink="http://www.w3.org/1999/xlink" y="500.5" v:stencils="{&quot;0&quot;:{&quot;id&quot;:&quot;stencil_65&quot;,&quot;expand&quot;:0,&quot;show_name&quot;:1}}"><style xmlns="http://www.w3.org/1999/xhtml"><![CDATA[#draw\.id{stroke:#000;stroke-linecap:round;stroke-linejoin:round;fill:#fff;fill-rule:evenodd;font-family:Roboto;font-size:14px;text-anchor:middle}#draw\.id text{paint-order:stroke;white-space:pre}#draw\.id .Text\.cls{stroke:none}]]></style><defs><linearGradient id="L00100100000aaff10000387f.grad" x1="0%" y1="0%" x2="100%" y2="100%" style=""><stop offset="0%" stop-color="#00aaff" stop-opacity="1"/><stop offset="100%" stop-color="#00387f" stop-opacity="1"/></linearGradient><linearGradient id="L00100100000aaff10010000387f100.grad" x1="0%" y1="0%" x2="100%" y2="100%" style=""><stop offset="0%" stop-color="#00aaff" stop-opacity="1"/><stop offset="100%" stop-color="#00387f" stop-opacity="1"/></linearGradient><linearGradient id="L001001000808080100000000.grad" x1="0%" y1="0%" x2="100%" y2="100%" style=""><stop offset="0%" stop-color="#808080" stop-opacity="1"/><stop offset="100%" stop-color="#000000" stop-opacity="1"/></linearGradient><linearGradient id="L001001000808080100100000000100.grad" x1="0%" y1="0%" x2="100%" y2="100%" style=""><stop offset="0%" stop-color="#808080" stop-opacity="1"/><stop offset="100%" stop-color="#000000" stop-opacity="1"/></linearGradient><linearGradient id="L001001000f1a9eb100672965.grad" x1="0%" y1="0%" x2="100%" y2="100%" style=""><stop offset="0%" stop-color="#f1a9eb" stop-opacity="1"/><stop offset="100%" stop-color="#672965" stop-opacity="1"/></linearGradient><linearGradient id="L001001000ffd194100d1913c.grad" x1="0%" y1="0%" x2="100%" y2="100%" style=""><stop offset="0%" stop-color="#ffd194"/><stop offset="100%" stop-color="#d1913c"/></linearGradient><linearGradient id="L06710033090a4ae100ECEFF1.grad" x1="0%" y1="67%" x2="100%" y2="33%" style=""><stop offset="0%" stop-color="#90a4ae"/><stop offset="100%" stop-color="#ECEFF1"/></linearGradient><linearGradient id="L0941006090a4ae100B0BEC5.grad" x1="0%" y1="94%" x2="100%" y2="6%" style=""><stop offset="0%" stop-color="#90a4ae"/><stop offset="100%" stop-color="#B0BEC5"/></linearGradient><linearGradient id="L100100000578fff1008ab1ff.grad" x1="100%" y1="100%" x2="0%" y2="0%" style=""><stop offset="0%" stop-color="#578fff"/><stop offset="100%" stop-color="#8ab1ff"/></linearGradient><linearGradient id="L10010000057c7ff1008ad8ff.grad" x1="100%" y1="100%" x2="0%" y2="0%" style=""><stop offset="0%" stop-color="#57c7ff"/><stop offset="100%" stop-color="#8ad8ff"/></linearGradient><linearGradient id="L10010000057ffff1008affff.grad" x1="100%" y1="100%" x2="0%" y2="0%" style=""><stop offset="0%" stop-color="#57ffff"/><stop offset="100%" stop-color="#8affff"/></linearGradient><linearGradient id="L1001000008fff57100b1ff8a.grad" x1="100%" y1="100%" x2="0%" y2="0%" style=""><stop offset="0%" stop-color="#8fff57"/><stop offset="100%" stop-color="#b1ff8a"/></linearGradient><linearGradient id="L100100000c757ff100d88aff.grad" x1="100%" y1="100%" x2="0%" y2="0%" style=""><stop offset="0%" stop-color="#c757ff"/><stop offset="100%" stop-color="#d88aff"/></linearGradient><linearGradient id="L100100000c7ff57100d8ff8a.grad" x1="100%" y1="100%" x2="0%" y2="0%" style=""><stop offset="0%" stop-color="#c7ff57"/><stop offset="100%" stop-color="#d8ff8a"/></linearGradient><linearGradient id="L100100000ff578f100ff8ab1.grad" x1="100%" y1="100%" x2="0%" y2="0%" style=""><stop offset="0%" stop-color="#ff578f"/><stop offset="100%" stop-color="#ff8ab1"/></linearGradient><linearGradient id="L100100000ff57e3100ff8aeb.grad" x1="100%" y1="100%" x2="0%" y2="0%" style=""><stop offset="0%" stop-color="#ff57e3"/><stop offset="100%" stop-color="#ff8aeb"/></linearGradient><linearGradient id="L100100000ff7357100ff9d8a.grad" x1="100%" y1="100%" x2="0%" y2="0%" style=""><stop offset="0%" stop-color="#ff7357"/><stop offset="100%" stop-color="#ff9d8a"/></linearGradient><linearGradient id="L100100000ffab57100ffc48a.grad" x1="100%" y1="100%" x2="0%" y2="0%" style=""><stop offset="0%" stop-color="#ffab57"/><stop offset="100%" stop-color="#ffc48a"/></linearGradient><linearGradient id="L100100000ffe357100ffeb8a.grad" x1="100%" y1="100%" x2="0%" y2="0%" style=""><stop offset="0%" stop-color="#ffe357"/><stop offset="100%" stop-color="#ffeb8a"/></linearGradient><linearGradient id="L100100000ffff57100ffff8a.grad" x1="100%" y1="100%" x2="0%" y2="0%" style=""><stop offset="0%" stop-color="#ffff57"/><stop offset="100%" stop-color="#ffff8a"/></linearGradient><linearGradient id="L170831000E0E0E0100757575.grad" x1="17%" y1="0%" x2="83%" y2="100%" style=""><stop offset="0%" stop-color="#E0E0E0"/><stop offset="100%" stop-color="#757575"/></linearGradient><linearGradient id="L5005010004387FD1004683EA.grad" x1="50%" y1="0%" x2="50%" y2="100%" style=""><stop offset="0%" stop-color="#4387FD"/><stop offset="100%" stop-color="#4683EA"/></linearGradient><linearGradient id="L611003900000000100100808080100.grad" x1="61%" y1="100%" x2="39%" y2="0%" style=""><stop offset="0%" stop-color="#000000" stop-opacity="1"/><stop offset="100%" stop-color="#808080" stop-opacity="1"/></linearGradient><clipPath id="jw8nw00y2b8.clip" style=""><path d="M 0 15 C 0 6.69 6.69 0 15 0 L 399 0 C 407.31 0 414 6.69 414 15 L 414 813 C 414 821.31 407.31 828 399 828 L 15 828 C 6.69 828 0 821.31 0 813 Z" stroke="hsla(0,0%,100%,1)" stroke-width="1" transform="translate(0 0)"/></clipPath><clipPath id="jw8nwu5f2en.clip" style=""><path d="M 480 947.0445 C 480 966 463.5 986 440.1188 986 L 40.1346 986 C 10 986 0 960 0 949.9712 L 0 39.7345 C 0 16 20 0 39.7865 0 L 130.3007 0 C 139.25 0 145 7.75 145 14.1357 L 145 14 C 145 30.62 158.38 44 175 44 L 305 44 C 321.62 44 335 30.62 335 14 L 335 13.8857 C 335 8.75 340 0 349.9493 0 L 439.7751 0 C 464.5 0 480 20.5 480 39.9367 Z" stroke="hsla(0,0%,100%,1)" stroke-width="1" transform="translate(0 0)"/></clipPath><clipPath id="jw8nxjem3h1.clip" style=""><path d="M 0 40 C 0 17.84 17.84 0 40 0 L 374 0 C 396.16 0 414 17.84 414 40 L 414 834 C 414 856.16 396.16 874 374 874 L 40 874 C 17.84 874 0 856.16 0 834 Z" stroke="hsla(0,0%,100%,1)" transform="translate(1.1517835812563817 3)"/></clipPath><clipPath id="jw8ny4f43i0.clip" style=""><path d="M 0 40 C 0 17.84 17.84 0 40 0 L 440 0 C 462.16 0 480 17.84 480 40 L 480 973 C 480 995.16 462.16 1013 440 1013 L 40 1013 C 17.84 1013 0 995.16 0 973 Z" stroke="hsla(0,0%,100%,1)" stroke-width="1" transform="translate(6 8.642899999999997)"/></clipPath><clipPath id="jw8o1udg4wt.clip" style=""><path d="M 43.54657451923149 0 L 149.36523437499966 0 C 180.34197716346247 0 180.34197716346247 30.062344341105906 206.68347355769168 30.062344341105906 C 233.02496995192348 30.062344341105906 233.02496995192348 0 264.0775615985576 0 L 375.48191105769286 0 C 390.62403846153893 0 396.11487379807704 1.5754000230444005 401.65063100961584 4.533742296454201 C 407.18638822115395 7.4920414082198015 411.530851862981 11.833239608706302 414.4913762019235 17.364835963593304 C 417.45190054086584 22.896389156836005 419.02848557692346 28.383140563119007 419.02848557692346 43.51388664745901 L 419.02848557692346 839.0223144317017 C 419.02848557692346 854.1529741927511 417.45190054086584 859.6397687606808 414.4913762019235 865.171365115567 C 411.530851862981 870.7028751471631 407.18638822115395 875.0440733476512 401.65063100961584 878.0024587827053 C 396.11487379807704 880.9607578944717 390.62403846153893 882.5361579175152 375.48191105769286 882.5361579175152 L 43.54657451923149 882.5361579175152 C 28.404447115384198 882.5361579175152 22.913611778847397 880.9607578944717 17.377854567307896 878.0024587827053 C 11.842097355768498 875.0440733476512 7.497633713942099 870.7028751471631 4.537109374999999 865.171365115567 C 1.5765850360578997 859.6397687606808 0 854.1529741927511 0 839.0223144317017 L 0 43.51388664745901 C 0 28.383140563119007 1.5765850360578997 22.896389156836005 4.537109374999999 17.364835963593304 C 7.497633713942099 11.833239608706302 11.842097355768498 7.4920414082198015 17.377854567307896 4.533742296454201 C 22.913611778847397 1.5754000230444005 28.404447115384198 0 43.54657451923149 0 Z" fill="hsla(0,0%,20%,1)" stroke="none" transform="translate(0 0)"/></clipPath><clipPath id="jw8pi2jcloi.clip" style=""><path d="M 335.8927317333333 814.0000000000001 C 362.464 814.0000000000001 376 790.972109720438 376 774.0900697557959 L 376 39.9095124786729 C 376 15.5326649749132 354.944 0.0138998239484 336.1203370666667 0.0138998239484 L 298.2586410666667 0.0138998239484 C 296.288 0.0138998239484 292.7786666666667 2.3917210306186 292.7943082666667 5.7074945327155 C 292.7786666666667 7.1475636899658 292.7786666666667 8.3184020911954 292.7786666666667 10.0259999134094 C 292.7786666666667 21.1194284391008 283.83488 30.0503002153345 272.7253333333333 30.0503002153345 L 103.2746666666667 30.0503002153345 C 92.16512 30.0503002153345 83.2213333333333 21.1194284391008 83.2213333333333 10.0259999134094 C 83.2213333333333 7.9584598941353 83.2213333333333 8.5241548630892 83.2320618666667 6.3454783100915 C 83.2213333333333 2.0162597680386 79.8373333333333 0.0138998239484 77.4965077333333 0.0138998239484 L 39.9373162666667 0.0138998239484 C 23.0613333333333 -0.4867151928249 0 12.5290749972763 0 40.0629009198122 L 0 774.0901698787992 C 0 797.9806198322619 19.552 814.0000000000001 40.107168 814.0000000000001 Z" stroke="hsla(0,0%,100%,1)" stroke-width="1" transform="translate(1.6289867642501576 1)"/></clipPath><clipPath id="jw8pmnlrt78.clip" style=""><path d="M 369.8393 895.9999976352831 C 399.096 895.9999976352831 414 870.652297635283 414 852.0696976352831 L 414 43.9298976352831 C 414 17.097397635283 390.816 0.015297635283 370.0899 0.015297635283 L 328.4018 0.015297635283 C 326.232 0.015297635283 322.368 2.632697635283 322.3852 6.282497635283 C 322.368 7.867597635283 322.368 9.156397635283 322.368 11.035997635283 C 322.368 23.246897635283 312.5203 33.0774976352831 300.288 33.0774976352831 L 113.712 33.0774976352831 C 101.4797 33.0774976352831 91.632 23.246897635283 91.632 11.035997635283 C 91.632 8.760197635283 91.632 9.382897635283 91.6438 6.984697635283 C 91.632 2.219397635283 87.906 0.015297635283 85.3286 0.015297635283 L 43.9735 0.015297635283 C 25.392 -0.535702364717 0 13.791197635283 0 44.0986976352831 L 0 852.0697976352831 C 0 878.3668976352831 21.528 895.9999976352831 44.1606 895.9999976352831 Z" stroke="hsla(0,0%,100%,1)" stroke-width="1" transform="translate(0.9199223449481906 1.0000011823585737)"/></clipPath><clipPath id="jw8uzo6nb9b.clip" style=""><rect x="0" y="0" width="480" height="1040" stroke-width="0.2" stroke="none" rx="40" class="" transform="translate(0.999964282226756 1.16666664971126)"/></clipPath><clipPath id="jwpugewnio.clip" style=""><path d="M 0 0 L 375 0 L 375 667 L 0 667 Z" fill="hsla(240,8%,12%,1)" fill-opacity="1" stroke="hsla(0,0%,75%,1)" stroke-linejoin="miter" stroke-width="1" transform="translate(146.49997790527343 1)"/></clipPath><clipPath id="jwpuhbtxk8.clip" style=""><path d="M 0 0 L 414 0 L 414 736 L 0 736 Z" stroke="hsla(0,0%,75%,1)" stroke-linejoin="miter" stroke-width="1" transform="translate(161.99995786132808 1)"/></clipPath><link rel="stylesheet" data-is-imported="true" media="" href="data:text/css,%2F*%20cyrillic-ext%20*%2F%0A%40font-face%20%7B%0A%20%20font-family%3A%20'Roboto%20Condensed'%3B%0A%20%20font-style%3A%20italic%3B%0A%20%20font-weight%3A%20400%3B%0A%20%20src%3A%20local('Roboto%20Condensed%20Italic')%2C%20local('RobotoCondensed-Italic')%2C%20url(https%3A%2F%2Ffonts.gstatic.com%2Fs%2Frobotocondensed%2Fv17%2FieVj2ZhZI2eCN5jzbjEETS9weq8-19eLAgM9UvI.woff2)%20format('woff2')%3B%0A%20%20unicode-range%3A%20U%2B0460-052F%2C%20U%2B1C80-1C88%2C%20U%2B20B4%2C%20U%2B2DE0-2DFF%2C%20U%2BA640-A69F%2C%20U%2BFE2E-FE2F%3B%0A%7D%0A%2F*%20cyrillic%20*%2F%0A%40font-face%20%7B%0A%20%20font-family%3A%20'Roboto%20Condensed'%3B%0A%20%20font-style%3A%20italic%3B%0A%20%20font-weight%3A%20400%3B%0A%20%20src%3A%20local('Roboto%20Condensed%20Italic')%2C%20local('RobotoCondensed-Italic')%2C%20url(https%3A%2F%2Ffonts.gstatic.com%2Fs%2Frobotocondensed%2Fv17%2FieVj2ZhZI2eCN5jzbjEETS9weq8-19eLCwM9UvI.woff2)%20format('woff2')%3B%0A%20%20unicode-range%3A%20U%2B0400-045F%2C%20U%2B0490-0491%2C%20U%2B04B0-04B1%2C%20U%2B2116%3B%0A%7D%0A%2F*%20greek-ext%20*%2F%0A%40font-face%20%7B%0A%20%20font-family%3A%20'Roboto%20Condensed'%3B%0A%20%20font-style%3A%20italic%3B%0A%20%20font-weight%3A%20400%3B%0A%20%20src%3A%20local('Roboto%20Condensed%20Italic')%2C%20local('RobotoCondensed-Italic')%2C%20url(https%3A%2F%2Ffonts.gstatic.com%2Fs%2Frobotocondensed%2Fv17%2FieVj2ZhZI2eCN5jzbjEETS9weq8-19eLAwM9UvI.woff2)%20format('woff2')%3B%0A%20%20unicode-range%3A%20U%2B1F00-1FFF%3B%0A%7D%0A%2F*%20greek%20*%2F%0A%40font-face%20%7B%0A%20%20font-family%3A%20'Roboto%20Condensed'%3B%0A%20%20font-style%3A%20italic%3B%0A%20%20font-weight%3A%20400%3B%0A%20%20src%3A%20local('Roboto%20Condensed%20Italic')%2C%20local('RobotoCondensed-Italic')%2C%20url(https%3A%2F%2Ffonts.gstatic.com%2Fs%2Frobotocondensed%2Fv17%2FieVj2ZhZI2eCN5jzbjEETS9weq8-19eLDAM9UvI.woff2)%20format('woff2')%3B%0A%20%20unicode-range%3A%20U%2B0370-03FF%3B%0A%7D%0A%2F*%20vietnamese%20*%2F%0A%40font-face%20%7B%0A%20%20font-family%3A%20'Roboto%20Condensed'%3B%0A%20%20font-style%3A%20italic%3B%0A%20%20font-weight%3A%20400%3B%0A%20%20src%3A%20local('Roboto%20Condensed%20Italic')%2C%20local('RobotoCondensed-Italic')%2C%20url(https%3A%2F%2Ffonts.gstatic.com%2Fs%2Frobotocondensed%2Fv17%2FieVj2ZhZI2eCN5jzbjEETS9weq8-19eLAAM9UvI.woff2)%20format('woff2')%3B%0A%20%20unicode-range%3A%20U%2B0102-0103%2C%20U%2B0110-0111%2C%20U%2B1EA0-1EF9%2C%20U%2B20AB%3B%0A%7D%0A%2F*%20latin-ext%20*%2F%0A%40font-face%20%7B%0A%20%20font-family%3A%20'Roboto%20Condensed'%3B%0A%20%20font-style%3A%20italic%3B%0A%20%20font-weight%3A%20400%3B%0A%20%20src%3A%20local('Roboto%20Condensed%20Italic')%2C%20local('RobotoCondensed-Italic')%2C%20url(https%3A%2F%2Ffonts.gstatic.com%2Fs%2Frobotocondensed%2Fv17%2FieVj2ZhZI2eCN5jzbjEETS9weq8-19eLAQM9UvI.woff2)%20format('woff2')%3B%0A%20%20unicode-range%3A%20U%2B0100-024F%2C%20U%2B0259%2C%20U%2B1E00-1EFF%2C%20U%2B2020%2C%20U%2B20A0-20AB%2C%20U%2B20AD-20CF%2C%20U%2B2113%2C%20U%2B2C60-2C7F%2C%20U%2BA720-A7FF%3B%0A%7D%0A%2F*%20latin%20*%2F%0A%40font-face%20%7B%0A%20%20font-family%3A%20'Roboto%20Condensed'%3B%0A%20%20font-style%3A%20italic%3B%0A%20%20font-weight%3A%20400%3B%0A%20%20src%3A%20local('Roboto%20Condensed%20Italic')%2C%20local('RobotoCondensed-Italic')%2C%20url(https%3A%2F%2Ffonts.gstatic.com%2Fs%2Frobotocondensed%2Fv17%2FieVj2ZhZI2eCN5jzbjEETS9weq8-19eLDwM9.woff2)%20format('woff2')%3B%0A%20%20unicode-range%3A%20U%2B0000-00FF%2C%20U%2B0131%2C%20U%2B0152-0153%2C%20U%2B02BB-02BC%2C%20U%2B02C6%2C%20U%2B02DA%2C%20U%2B02DC%2C%20U%2B2000-206F%2C%20U%2B2074%2C%20U%2B20AC%2C%20U%2B2122%2C%20U%2B2191%2C%20U%2B2193%2C%20U%2B2212%2C%20U%2B2215%2C%20U%2BFEFF%2C%20U%2BFFFD%3B%0A%7D%0A%2F*%20cyrillic-ext%20*%2F%0A%40font-face%20%7B%0A%20%20font-family%3A%20'Roboto%20Condensed'%3B%0A%20%20font-style%3A%20italic%3B%0A%20%20font-weight%3A%20700%3B%0A%20%20src%3A%20local('Roboto%20Condensed%20Bold%20Italic')%2C%20local('RobotoCondensed-BoldItalic')%2C%20url(https%3A%2F%2Ffonts.gstatic.com%2Fs%2Frobotocondensed%2Fv17%2FieVg2ZhZI2eCN5jzbjEETS9weq8-19eDtCYoYNNZQyQ.woff2)%20format('woff2')%3B%0A%20%20unicode-range%3A%20U%2B0460-052F%2C%20U%2B1C80-1C88%2C%20U%2B20B4%2C%20U%2B2DE0-2DFF%2C%20U%2BA640-A69F%2C%20U%2BFE2E-FE2F%3B%0A%7D%0A%2F*%20cyrillic%20*%2F%0A%40font-face%20%7B%0A%20%20font-family%3A%20'Roboto%20Condensed'%3B%0A%20%20font-style%3A%20italic%3B%0A%20%20font-weight%3A%20700%3B%0A%20%20src%3A%20local('Roboto%20Condensed%20Bold%20Italic')%2C%20local('RobotoCondensed-BoldItalic')%2C%20url(https%3A%2F%2Ffonts.gstatic.com%2Fs%2Frobotocondensed%2Fv17%2FieVg2ZhZI2eCN5jzbjEETS9weq8-19eDtCYoadNZQyQ.woff2)%20format('woff2')%3B%0A%20%20unicode-range%3A%20U%2B0400-045F%2C%20U%2B0490-0491%2C%20U%2B04B0-04B1%2C%20U%2B2116%3B%0A%7D%0A%2F*%20greek-ext%20*%2F%0A%40font-face%20%7B%0A%20%20font-family%3A%20'Roboto%20Condensed'%3B%0A%20%20font-style%3A%20italic%3B%0A%20%20font-weight%3A%20700%3B%0A%20%20src%3A%20local('Roboto%20Condensed%20Bold%20Italic')%2C%20local('RobotoCondensed-BoldItalic')%2C%20url(https%3A%2F%2Ffonts.gstatic.com%2Fs%2Frobotocondensed%2Fv17%2FieVg2ZhZI2eCN5jzbjEETS9weq8-19eDtCYoYdNZQyQ.woff2)%20format('woff2')%3B%0A%20%20unicode-range%3A%20U%2B1F00-1FFF%3B%0A%7D%0A%2F*%20greek%20*%2F%0A%40font-face%20%7B%0A%20%20font-family%3A%20'Roboto%20Condensed'%3B%0A%20%20font-style%3A%20italic%3B%0A%20%20font-weight%3A%20700%3B%0A%20%20src%3A%20local('Roboto%20Condensed%20Bold%20Italic')%2C%20local('RobotoCondensed-BoldItalic')%2C%20url(https%3A%2F%2Ffonts.gstatic.com%2Fs%2Frobotocondensed%2Fv17%2FieVg2ZhZI2eCN5jzbjEETS9weq8-19eDtCYobtNZQyQ.woff2)%20format('woff2')%3B%0A%20%20unicode-range%3A%20U%2B0370-03FF%3B%0A%7D%0A%2F*%20vietnamese%20*%2F%0A%40font-face%20%7B%0A%20%20font-family%3A%20'Roboto%20Condensed'%3B%0A%20%20font-style%3A%20italic%3B%0A%20%20font-weight%3A%20700%3B%0A%20%20src%3A%20local('Roboto%20Condensed%20Bold%20Italic')%2C%20local('RobotoCondensed-BoldItalic')%2C%20url(https%3A%2F%2Ffonts.gstatic.com%2Fs%2Frobotocondensed%2Fv17%2FieVg2ZhZI2eCN5jzbjEETS9weq8-19eDtCYoYtNZQyQ.woff2)%20format('woff2')%3B%0A%20%20unicode-range%3A%20U%2B0102-0103%2C%20U%2B0110-0111%2C%20U%2B1EA0-1EF9%2C%20U%2B20AB%3B%0A%7D%0A%2F*%20latin-ext%20*%2F%0A%40font-face%20%7B%0A%20%20font-family%3A%20'Roboto%20Condensed'%3B%0A%20%20font-style%3A%20italic%3B%0A%20%20font-weight%3A%20700%3B%0A%20%20src%3A%20local('Roboto%20Condensed%20Bold%20Italic')%2C%20local('RobotoCondensed-BoldItalic')%2C%20url(https%3A%2F%2Ffonts.gstatic.com%2Fs%2Frobotocondensed%2Fv17%2FieVg2ZhZI2eCN5jzbjEETS9weq8-19eDtCYoY9NZQyQ.woff2)%20format('woff2')%3B%0A%20%20unicode-range%3A%20U%2B0100-024F%2C%20U%2B0259%2C%20U%2B1E00-1EFF%2C%20U%2B2020%2C%20U%2B20A0-20AB%2C%20U%2B20AD-20CF%2C%20U%2B2113%2C%20U%2B2C60-2C7F%2C%20U%2BA720-A7FF%3B%0A%7D%0A%2F*%20latin%20*%2F%0A%40font-face%20%7B%0A%20%20font-family%3A%20'Roboto%20Condensed'%3B%0A%20%20font-style%3A%20italic%3B%0A%20%20font-weight%3A%20700%3B%0A%20%20src%3A%20local('Roboto%20Condensed%20Bold%20Italic')%2C%20local('RobotoCondensed-BoldItalic')%2C%20url(https%3A%2F%2Ffonts.gstatic.com%2Fs%2Frobotocondensed%2Fv17%2FieVg2ZhZI2eCN5jzbjEETS9weq8-19eDtCYobdNZ.woff2)%20format('woff2')%3B%0A%20%20unicode-range%3A%20U%2B0000-00FF%2C%20U%2B0131%2C%20U%2B0152-0153%2C%20U%2B02BB-02BC%2C%20U%2B02C6%2C%20U%2B02DA%2C%20U%2B02DC%2C%20U%2B2000-206F%2C%20U%2B2074%2C%20U%2B20AC%2C%20U%2B2122%2C%20U%2B2191%2C%20U%2B2193%2C%20U%2B2212%2C%20U%2B2215%2C%20U%2BFEFF%2C%20U%2BFFFD%3B%0A%7D%0A%2F*%20cyrillic-ext%20*%2F%0A%40font-face%20%7B%0A%20%20font-family%3A%20'Roboto%20Condensed'%3B%0A%20%20font-style%3A%20normal%3B%0A%20%20font-weight%3A%20400%3B%0A%20%20src%3A%20local('Roboto%20Condensed')%2C%20local('RobotoCondensed-Regular')%2C%20url(https%3A%2F%2Ffonts.gstatic.com%2Fs%2Frobotocondensed%2Fv17%2FieVl2ZhZI2eCN5jzbjEETS9weq8-19-7DRs5.woff2)%20format('woff2')%3B%0A%20%20unicode-range%3A%20U%2B0460-052F%2C%20U%2B1C80-1C88%2C%20U%2B20B4%2C%20U%2B2DE0-2DFF%2C%20U%2BA640-A69F%2C%20U%2BFE2E-FE2F%3B%0A%7D%0A%2F*%20cyrillic%20*%2F%0A%40font-face%20%7B%0A%20%20font-family%3A%20'Roboto%20Condensed'%3B%0A%20%20font-style%3A%20normal%3B%0A%20%20font-weight%3A%20400%3B%0A%20%20src%3A%20local('Roboto%20Condensed')%2C%20local('RobotoCondensed-Regular')%2C%20url(https%3A%2F%2Ffonts.gstatic.com%2Fs%2Frobotocondensed%2Fv17%2FieVl2ZhZI2eCN5jzbjEETS9weq8-19a7DRs5.woff2)%20format('woff2')%3B%0A%20%20unicode-range%3A%20U%2B0400-045F%2C%20U%2B0490-0491%2C%20U%2B04B0-04B1%2C%20U%2B2116%3B%0A%7D%0A%2F*%20greek-ext%20*%2F%0A%40font-face%20%7B%0A%20%20font-family%3A%20'Roboto%20Condensed'%3B%0A%20%20font-style%3A%20normal%3B%0A%20%20font-weight%3A%20400%3B%0A%20%20src%3A%20local('Roboto%20Condensed')%2C%20local('RobotoCondensed-Regular')%2C%20url(https%3A%2F%2Ffonts.gstatic.com%2Fs%2Frobotocondensed%2Fv17%2FieVl2ZhZI2eCN5jzbjEETS9weq8-1967DRs5.woff2)%20format('woff2')%3B%0A%20%20unicode-range%3A%20U%2B1F00-1FFF%3B%0A%7D%0A%2F*%20greek%20*%2F%0A%40font-face%20%7B%0A%20%20font-family%3A%20'Roboto%20Condensed'%3B%0A%20%20font-style%3A%20normal%3B%0A%20%20font-weight%3A%20400%3B%0A%20%20src%3A%20local('Roboto%20Condensed')%2C%20local('RobotoCondensed-Regular')%2C%20url(https%3A%2F%2Ffonts.gstatic.com%2Fs%2Frobotocondensed%2Fv17%2FieVl2ZhZI2eCN5jzbjEETS9weq8-19G7DRs5.woff2)%20format('woff2')%3B%0A%20%20unicode-range%3A%20U%2B0370-03FF%3B%0A%7D%0A%2F*%20vietnamese%20*%2F%0A%40font-face%20%7B%0A%20%20font-family%3A%20'Roboto%20Condensed'%3B%0A%20%20font-style%3A%20normal%3B%0A%20%20font-weight%3A%20400%3B%0A%20%20src%3A%20local('Roboto%20Condensed')%2C%20local('RobotoCondensed-Regular')%2C%20url(https%3A%2F%2Ffonts.gstatic.com%2Fs%2Frobotocondensed%2Fv17%2FieVl2ZhZI2eCN5jzbjEETS9weq8-1927DRs5.woff2)%20format('woff2')%3B%0A%20%20unicode-range%3A%20U%2B0102-0103%2C%20U%2B0110-0111%2C%20U%2B1EA0-1EF9%2C%20U%2B20AB%3B%0A%7D%0A%2F*%20latin-ext%20*%2F%0A%40font-face%20%7B%0A%20%20font-family%3A%20'Roboto%20Condensed'%3B%0A%20%20font-style%3A%20normal%3B%0A%20%20font-weight%3A%20400%3B%0A%20%20src%3A%20local('Roboto%20Condensed')%2C%20local('RobotoCondensed-Regular')%2C%20url(https%3A%2F%2Ffonts.gstatic.com%2Fs%2Frobotocondensed%2Fv17%2FieVl2ZhZI2eCN5jzbjEETS9weq8-19y7DRs5.woff2)%20format('woff2')%3B%0A%20%20unicode-range%3A%20U%2B0100-024F%2C%20U%2B0259%2C%20U%2B1E00-1EFF%2C%20U%2B2020%2C%20U%2B20A0-20AB%2C%20U%2B20AD-20CF%2C%20U%2B2113%2C%20U%2B2C60-2C7F%2C%20U%2BA720-A7FF%3B%0A%7D%0A%2F*%20latin%20*%2F%0A%40font-face%20%7B%0A%20%20font-family%3A%20'Roboto%20Condensed'%3B%0A%20%20font-style%3A%20normal%3B%0A%20%20font-weight%3A%20400%3B%0A%20%20src%3A%20local('Roboto%20Condensed')%2C%20local('RobotoCondensed-Regular')%2C%20url(https%3A%2F%2Ffonts.gstatic.com%2Fs%2Frobotocondensed%2Fv17%2FieVl2ZhZI2eCN5jzbjEETS9weq8-19K7DQ.woff2)%20format('woff2')%3B%0A%20%20unicode-range%3A%20U%2B0000-00FF%2C%20U%2B0131%2C%20U%2B0152-0153%2C%20U%2B02BB-02BC%2C%20U%2B02C6%2C%20U%2B02DA%2C%20U%2B02DC%2C%20U%2B2000-206F%2C%20U%2B2074%2C%20U%2B20AC%2C%20U%2B2122%2C%20U%2B2191%2C%20U%2B2193%2C%20U%2B2212%2C%20U%2B2215%2C%20U%2BFEFF%2C%20U%2BFFFD%3B%0A%7D%0A%2F*%20cyrillic-ext%20*%2F%0A%40font-face%20%7B%0A%20%20font-family%3A%20'Roboto%20Condensed'%3B%0A%20%20font-style%3A%20normal%3B%0A%20%20font-weight%3A%20700%3B%0A%20%20src%3A%20local('Roboto%20Condensed%20Bold')%2C%20local('RobotoCondensed-Bold')%2C%20url(https%3A%2F%2Ffonts.gstatic.com%2Fs%2Frobotocondensed%2Fv17%2FieVi2ZhZI2eCN5jzbjEETS9weq8-32meGCkYb8td.woff2)%20format('woff2')%3B%0A%20%20unicode-range%3A%20U%2B0460-052F%2C%20U%2B1C80-1C88%2C%20U%2B20B4%2C%20U%2B2DE0-2DFF%2C%20U%2BA640-A69F%2C%20U%2BFE2E-FE2F%3B%0A%7D%0A%2F*%20cyrillic%20*%2F%0A%40font-face%20%7B%0A%20%20font-family%3A%20'Roboto%20Condensed'%3B%0A%20%20font-style%3A%20normal%3B%0A%20%20font-weight%3A%20700%3B%0A%20%20src%3A%20local('Roboto%20Condensed%20Bold')%2C%20local('RobotoCondensed-Bold')%2C%20url(https%3A%2F%2Ffonts.gstatic.com%2Fs%2Frobotocondensed%2Fv17%2FieVi2ZhZI2eCN5jzbjEETS9weq8-32meGCAYb8td.woff2)%20format('woff2')%3B%0A%20%20unicode-range%3A%20U%2B0400-045F%2C%20U%2B0490-0491%2C%20U%2B04B0-04B1%2C%20U%2B2116%3B%0A%7D%0A%2F*%20greek-ext%20*%2F%0A%40font-face%20%7B%0A%20%20font-family%3A%20'Roboto%20Condensed'%3B%0A%20%20font-style%3A%20normal%3B%0A%20%20font-weight%3A%20700%3B%0A%20%20src%3A%20local('Roboto%20Condensed%20Bold')%2C%20local('RobotoCondensed-Bold')%2C%20url(https%3A%2F%2Ffonts.gstatic.com%2Fs%2Frobotocondensed%2Fv17%2FieVi2ZhZI2eCN5jzbjEETS9weq8-32meGCgYb8td.woff2)%20format('woff2')%3B%0A%20%20unicode-range%3A%20U%2B1F00-1FFF%3B%0A%7D%0A%2F*%20greek%20*%2F%0A%40font-face%20%7B%0A%20%20font-family%3A%20'Roboto%20Condensed'%3B%0A%20%20font-style%3A%20normal%3B%0A%20%20font-weight%3A%20700%3B%0A%20%20src%3A%20local('Roboto%20Condensed%20Bold')%2C%20local('RobotoCondensed-Bold')%2C%20url(https%3A%2F%2Ffonts.gstatic.com%2Fs%2Frobotocondensed%2Fv17%2FieVi2ZhZI2eCN5jzbjEETS9weq8-32meGCcYb8td.woff2)%20format('woff2')%3B%0A%20%20unicode-range%3A%20U%2B0370-03FF%3B%0A%7D%0A%2F*%20vietnamese%20*%2F%0A%40font-face%20%7B%0A%20%20font-family%3A%20'Roboto%20Condensed'%3B%0A%20%20font-style%3A%20normal%3B%0A%20%20font-weight%3A%20700%3B%0A%20%20src%3A%20local('Roboto%20Condensed%20Bold')%2C%20local('RobotoCondensed-Bold')%2C%20url(https%3A%2F%2Ffonts.gstatic.com%2Fs%2Frobotocondensed%2Fv17%2FieVi2ZhZI2eCN5jzbjEETS9weq8-32meGCsYb8td.woff2)%20format('woff2')%3B%0A%20%20unicode-range%3A%20U%2B0102-0103%2C%20U%2B0110-0111%2C%20U%2B1EA0-1EF9%2C%20U%2B20AB%3B%0A%7D%0A%2F*%20latin-ext%20*%2F%0A%40font-face%20%7B%0A%20%20font-family%3A%20'Roboto%20Condensed'%3B%0A%20%20font-style%3A%20normal%3B%0A%20%20font-weight%3A%20700%3B%0A%20%20src%3A%20local('Roboto%20Condensed%20Bold')%2C%20local('RobotoCondensed-Bold')%2C%20url(https%3A%2F%2Ffonts.gstatic.com%2Fs%2Frobotocondensed%2Fv17%2FieVi2ZhZI2eCN5jzbjEETS9weq8-32meGCoYb8td.woff2)%20format('woff2')%3B%0A%20%20unicode-range%3A%20U%2B0100-024F%2C%20U%2B0259%2C%20U%2B1E00-1EFF%2C%20U%2B2020%2C%20U%2B20A0-20AB%2C%20U%2B20AD-20CF%2C%20U%2B2113%2C%20U%2B2C60-2C7F%2C%20U%2BA720-A7FF%3B%0A%7D%0A%2F*%20latin%20*%2F%0A%40font-face%20%7B%0A%20%20font-family%3A%20'Roboto%20Condensed'%3B%0A%20%20font-style%3A%20normal%3B%0A%20%20font-weight%3A%20700%3B%0A%20%20src%3A%20local('Roboto%20Condensed%20Bold')%2C%20local('RobotoCondensed-Bold')%2C%20url(https%3A%2F%2Ffonts.gstatic.com%2Fs%2Frobotocondensed%2Fv17%2FieVi2ZhZI2eCN5jzbjEETS9weq8-32meGCQYbw.woff2)%20format('woff2')%3B%0A%20%20unicode-range%3A%20U%2B0000-00FF%2C%20U%2B0131%2C%20U%2B0152-0153%2C%20U%2B02BB-02BC%2C%20U%2B02C6%2C%20U%2B02DA%2C%20U%2B02DC%2C%20U%2B2000-206F%2C%20U%2B2074%2C%20U%2B20AC%2C%20U%2B2122%2C%20U%2B2191%2C%20U%2B2193%2C%20U%2B2212%2C%20U%2B2215%2C%20U%2BFEFF%2C%20U%2BFFFD%3B%0A%7D%0A" style=""/><g id="many.end" style=""><path d="M -5 0 L 0 7.5 L 5 0" fill="none"/></g><link rel="stylesheet" data-is-imported="true" media="" href="data:text/css,%2F*%20cyrillic-ext%20*%2F%0A%40font-face%20%7B%0A%20%20font-family%3A%20'Roboto%20Condensed'%3B%0A%20%20font-style%3A%20italic%3B%0A%20%20font-weight%3A%20400%3B%0A%20%20src%3A%20local('Roboto%20Condensed%20Italic')%2C%20local('RobotoCondensed-Italic')%2C%20url(https%3A%2F%2Ffonts.gstatic.com%2Fs%2Frobotocondensed%2Fv17%2FieVj2ZhZI2eCN5jzbjEETS9weq8-19eLAgM9UvI.woff2)%20format('woff2')%3B%0A%20%20unicode-range%3A%20U%2B0460-052F%2C%20U%2B1C80-1C88%2C%20U%2B20B4%2C%20U%2B2DE0-2DFF%2C%20U%2BA640-A69F%2C%20U%2BFE2E-FE2F%3B%0A%7D%0A%2F*%20cyrillic%20*%2F%0A%40font-face%20%7B%0A%20%20font-family%3A%20'Roboto%20Condensed'%3B%0A%20%20font-style%3A%20italic%3B%0A%20%20font-weight%3A%20400%3B%0A%20%20src%3A%20local('Roboto%20Condensed%20Italic')%2C%20local('RobotoCondensed-Italic')%2C%20url(https%3A%2F%2Ffonts.gstatic.com%2Fs%2Frobotocondensed%2Fv17%2FieVj2ZhZI2eCN5jzbjEETS9weq8-19eLCwM9UvI.woff2)%20format('woff2')%3B%0A%20%20unicode-range%3A%20U%2B0400-045F%2C%20U%2B0490-0491%2C%20U%2B04B0-04B1%2C%20U%2B2116%3B%0A%7D%0A%2F*%20greek-ext%20*%2F%0A%40font-face%20%7B%0A%20%20font-family%3A%20'Roboto%20Condensed'%3B%0A%20%20font-style%3A%20italic%3B%0A%20%20font-weight%3A%20400%3B%0A%20%20src%3A%20local('Roboto%20Condensed%20Italic')%2C%20local('RobotoCondensed-Italic')%2C%20url(https%3A%2F%2Ffonts.gstatic.com%2Fs%2Frobotocondensed%2Fv17%2FieVj2ZhZI2eCN5jzbjEETS9weq8-19eLAwM9UvI.woff2)%20format('woff2')%3B%0A%20%20unicode-range%3A%20U%2B1F00-1FFF%3B%0A%7D%0A%2F*%20greek%20*%2F%0A%40font-face%20%7B%0A%20%20font-family%3A%20'Roboto%20Condensed'%3B%0A%20%20font-style%3A%20italic%3B%0A%20%20font-weight%3A%20400%3B%0A%20%20src%3A%20local('Roboto%20Condensed%20Italic')%2C%20local('RobotoCondensed-Italic')%2C%20url(https%3A%2F%2Ffonts.gstatic.com%2Fs%2Frobotocondensed%2Fv17%2FieVj2ZhZI2eCN5jzbjEETS9weq8-19eLDAM9UvI.woff2)%20format('woff2')%3B%0A%20%20unicode-range%3A%20U%2B0370-03FF%3B%0A%7D%0A%2F*%20vietnamese%20*%2F%0A%40font-face%20%7B%0A%20%20font-family%3A%20'Roboto%20Condensed'%3B%0A%20%20font-style%3A%20italic%3B%0A%20%20font-weight%3A%20400%3B%0A%20%20src%3A%20local('Roboto%20Condensed%20Italic')%2C%20local('RobotoCondensed-Italic')%2C%20url(https%3A%2F%2Ffonts.gstatic.com%2Fs%2Frobotocondensed%2Fv17%2FieVj2ZhZI2eCN5jzbjEETS9weq8-19eLAAM9UvI.woff2)%20format('woff2')%3B%0A%20%20unicode-range%3A%20U%2B0102-0103%2C%20U%2B0110-0111%2C%20U%2B1EA0-1EF9%2C%20U%2B20AB%3B%0A%7D%0A%2F*%20latin-ext%20*%2F%0A%40font-face%20%7B%0A%20%20font-family%3A%20'Roboto%20Condensed'%3B%0A%20%20font-style%3A%20italic%3B%0A%20%20font-weight%3A%20400%3B%0A%20%20src%3A%20local('Roboto%20Condensed%20Italic')%2C%20local('RobotoCondensed-Italic')%2C%20url(https%3A%2F%2Ffonts.gstatic.com%2Fs%2Frobotocondensed%2Fv17%2FieVj2ZhZI2eCN5jzbjEETS9weq8-19eLAQM9UvI.woff2)%20format('woff2')%3B%0A%20%20unicode-range%3A%20U%2B0100-024F%2C%20U%2B0259%2C%20U%2B1E00-1EFF%2C%20U%2B2020%2C%20U%2B20A0-20AB%2C%20U%2B20AD-20CF%2C%20U%2B2113%2C%20U%2B2C60-2C7F%2C%20U%2BA720-A7FF%3B%0A%7D%0A%2F*%20latin%20*%2F%0A%40font-face%20%7B%0A%20%20font-family%3A%20'Roboto%20Condensed'%3B%0A%20%20font-style%3A%20italic%3B%0A%20%20font-weight%3A%20400%3B%0A%20%20src%3A%20local('Roboto%20Condensed%20Italic')%2C%20local('RobotoCondensed-Italic')%2C%20url(https%3A%2F%2Ffonts.gstatic.com%2Fs%2Frobotocondensed%2Fv17%2FieVj2ZhZI2eCN5jzbjEETS9weq8-19eLDwM9.woff2)%20format('woff2')%3B%0A%20%20unicode-range%3A%20U%2B0000-00FF%2C%20U%2B0131%2C%20U%2B0152-0153%2C%20U%2B02BB-02BC%2C%20U%2B02C6%2C%20U%2B02DA%2C%20U%2B02DC%2C%20U%2B2000-206F%2C%20U%2B2074%2C%20U%2B20AC%2C%20U%2B2122%2C%20U%2B2191%2C%20U%2B2193%2C%20U%2B2212%2C%20U%2B2215%2C%20U%2BFEFF%2C%20U%2BFFFD%3B%0A%7D%0A%2F*%20cyrillic-ext%20*%2F%0A%40font-face%20%7B%0A%20%20font-family%3A%20'Roboto%20Condensed'%3B%0A%20%20font-style%3A%20italic%3B%0A%20%20font-weight%3A%20700%3B%0A%20%20src%3A%20local('Roboto%20Condensed%20Bold%20Italic')%2C%20local('RobotoCondensed-BoldItalic')%2C%20url(https%3A%2F%2Ffonts.gstatic.com%2Fs%2Frobotocondensed%2Fv17%2FieVg2ZhZI2eCN5jzbjEETS9weq8-19eDtCYoYNNZQyQ.woff2)%20format('woff2')%3B%0A%20%20unicode-range%3A%20U%2B0460-052F%2C%20U%2B1C80-1C88%2C%20U%2B20B4%2C%20U%2B2DE0-2DFF%2C%20U%2BA640-A69F%2C%20U%2BFE2E-FE2F%3B%0A%7D%0A%2F*%20cyrillic%20*%2F%0A%40font-face%20%7B%0A%20%20font-family%3A%20'Roboto%20Condensed'%3B%0A%20%20font-style%3A%20italic%3B%0A%20%20font-weight%3A%20700%3B%0A%20%20src%3A%20local('Roboto%20Condensed%20Bold%20Italic')%2C%20local('RobotoCondensed-BoldItalic')%2C%20url(https%3A%2F%2Ffonts.gstatic.com%2Fs%2Frobotocondensed%2Fv17%2FieVg2ZhZI2eCN5jzbjEETS9weq8-19eDtCYoadNZQyQ.woff2)%20format('woff2')%3B%0A%20%20unicode-range%3A%20U%2B0400-045F%2C%20U%2B0490-0491%2C%20U%2B04B0-04B1%2C%20U%2B2116%3B%0A%7D%0A%2F*%20greek-ext%20*%2F%0A%40font-face%20%7B%0A%20%20font-family%3A%20'Roboto%20Condensed'%3B%0A%20%20font-style%3A%20italic%3B%0A%20%20font-weight%3A%20700%3B%0A%20%20src%3A%20local('Roboto%20Condensed%20Bold%20Italic')%2C%20local('RobotoCondensed-BoldItalic')%2C%20url(https%3A%2F%2Ffonts.gstatic.com%2Fs%2Frobotocondensed%2Fv17%2FieVg2ZhZI2eCN5jzbjEETS9weq8-19eDtCYoYdNZQyQ.woff2)%20format('woff2')%3B%0A%20%20unicode-range%3A%20U%2B1F00-1FFF%3B%0A%7D%0A%2F*%20greek%20*%2F%0A%40font-face%20%7B%0A%20%20font-family%3A%20'Roboto%20Condensed'%3B%0A%20%20font-style%3A%20italic%3B%0A%20%20font-weight%3A%20700%3B%0A%20%20src%3A%20local('Roboto%20Condensed%20Bold%20Italic')%2C%20local('RobotoCondensed-BoldItalic')%2C%20url(https%3A%2F%2Ffonts.gstatic.com%2Fs%2Frobotocondensed%2Fv17%2FieVg2ZhZI2eCN5jzbjEETS9weq8-19eDtCYobtNZQyQ.woff2)%20format('woff2')%3B%0A%20%20unicode-range%3A%20U%2B0370-03FF%3B%0A%7D%0A%2F*%20vietnamese%20*%2F%0A%40font-face%20%7B%0A%20%20font-family%3A%20'Roboto%20Condensed'%3B%0A%20%20font-style%3A%20italic%3B%0A%20%20font-weight%3A%20700%3B%0A%20%20src%3A%20local('Roboto%20Condensed%20Bold%20Italic')%2C%20local('RobotoCondensed-BoldItalic')%2C%20url(https%3A%2F%2Ffonts.gstatic.com%2Fs%2Frobotocondensed%2Fv17%2FieVg2ZhZI2eCN5jzbjEETS9weq8-19eDtCYoYtNZQyQ.woff2)%20format('woff2')%3B%0A%20%20unicode-range%3A%20U%2B0102-0103%2C%20U%2B0110-0111%2C%20U%2B1EA0-1EF9%2C%20U%2B20AB%3B%0A%7D%0A%2F*%20latin-ext%20*%2F%0A%40font-face%20%7B%0A%20%20font-family%3A%20'Roboto%20Condensed'%3B%0A%20%20font-style%3A%20italic%3B%0A%20%20font-weight%3A%20700%3B%0A%20%20src%3A%20local('Roboto%20Condensed%20Bold%20Italic')%2C%20local('RobotoCondensed-BoldItalic')%2C%20url(https%3A%2F%2Ffonts.gstatic.com%2Fs%2Frobotocondensed%2Fv17%2FieVg2ZhZI2eCN5jzbjEETS9weq8-19eDtCYoY9NZQyQ.woff2)%20format('woff2')%3B%0A%20%20unicode-range%3A%20U%2B0100-024F%2C%20U%2B0259%2C%20U%2B1E00-1EFF%2C%20U%2B2020%2C%20U%2B20A0-20AB%2C%20U%2B20AD-20CF%2C%20U%2B2113%2C%20U%2B2C60-2C7F%2C%20U%2BA720-A7FF%3B%0A%7D%0A%2F*%20latin%20*%2F%0A%40font-face%20%7B%0A%20%20font-family%3A%20'Roboto%20Condensed'%3B%0A%20%20font-style%3A%20italic%3B%0A%20%20font-weight%3A%20700%3B%0A%20%20src%3A%20local('Roboto%20Condensed%20Bold%20Italic')%2C%20local('RobotoCondensed-BoldItalic')%2C%20url(https%3A%2F%2Ffonts.gstatic.com%2Fs%2Frobotocondensed%2Fv17%2FieVg2ZhZI2eCN5jzbjEETS9weq8-19eDtCYobdNZ.woff2)%20format('woff2')%3B%0A%20%20unicode-range%3A%20U%2B0000-00FF%2C%20U%2B0131%2C%20U%2B0152-0153%2C%20U%2B02BB-02BC%2C%20U%2B02C6%2C%20U%2B02DA%2C%20U%2B02DC%2C%20U%2B2000-206F%2C%20U%2B2074%2C%20U%2B20AC%2C%20U%2B2122%2C%20U%2B2191%2C%20U%2B2193%2C%20U%2B2212%2C%20U%2B2215%2C%20U%2BFEFF%2C%20U%2BFFFD%3B%0A%7D%0A%2F*%20cyrillic-ext%20*%2F%0A%40font-face%20%7B%0A%20%20font-family%3A%20'Roboto%20Condensed'%3B%0A%20%20font-style%3A%20normal%3B%0A%20%20font-weight%3A%20400%3B%0A%20%20src%3A%20local('Roboto%20Condensed')%2C%20local('RobotoCondensed-Regular')%2C%20url(https%3A%2F%2Ffonts.gstatic.com%2Fs%2Frobotocondensed%2Fv17%2FieVl2ZhZI2eCN5jzbjEETS9weq8-19-7DRs5.woff2)%20format('woff2')%3B%0A%20%20unicode-range%3A%20U%2B0460-052F%2C%20U%2B1C80-1C88%2C%20U%2B20B4%2C%20U%2B2DE0-2DFF%2C%20U%2BA640-A69F%2C%20U%2BFE2E-FE2F%3B%0A%7D%0A%2F*%20cyrillic%20*%2F%0A%40font-face%20%7B%0A%20%20font-family%3A%20'Roboto%20Condensed'%3B%0A%20%20font-style%3A%20normal%3B%0A%20%20font-weight%3A%20400%3B%0A%20%20src%3A%20local('Roboto%20Condensed')%2C%20local('RobotoCondensed-Regular')%2C%20url(https%3A%2F%2Ffonts.gstatic.com%2Fs%2Frobotocondensed%2Fv17%2FieVl2ZhZI2eCN5jzbjEETS9weq8-19a7DRs5.woff2)%20format('woff2')%3B%0A%20%20unicode-range%3A%20U%2B0400-045F%2C%20U%2B0490-0491%2C%20U%2B04B0-04B1%2C%20U%2B2116%3B%0A%7D%0A%2F*%20greek-ext%20*%2F%0A%40font-face%20%7B%0A%20%20font-family%3A%20'Roboto%20Condensed'%3B%0A%20%20font-style%3A%20normal%3B%0A%20%20font-weight%3A%20400%3B%0A%20%20src%3A%20local('Roboto%20Condensed')%2C%20local('RobotoCondensed-Regular')%2C%20url(https%3A%2F%2Ffonts.gstatic.com%2Fs%2Frobotocondensed%2Fv17%2FieVl2ZhZI2eCN5jzbjEETS9weq8-1967DRs5.woff2)%20format('woff2')%3B%0A%20%20unicode-range%3A%20U%2B1F00-1FFF%3B%0A%7D%0A%2F*%20greek%20*%2F%0A%40font-face%20%7B%0A%20%20font-family%3A%20'Roboto%20Condensed'%3B%0A%20%20font-style%3A%20normal%3B%0A%20%20font-weight%3A%20400%3B%0A%20%20src%3A%20local('Roboto%20Condensed')%2C%20local('RobotoCondensed-Regular')%2C%20url(https%3A%2F%2Ffonts.gstatic.com%2Fs%2Frobotocondensed%2Fv17%2FieVl2ZhZI2eCN5jzbjEETS9weq8-19G7DRs5.woff2)%20format('woff2')%3B%0A%20%20unicode-range%3A%20U%2B0370-03FF%3B%0A%7D%0A%2F*%20vietnamese%20*%2F%0A%40font-face%20%7B%0A%20%20font-family%3A%20'Roboto%20Condensed'%3B%0A%20%20font-style%3A%20normal%3B%0A%20%20font-weight%3A%20400%3B%0A%20%20src%3A%20local('Roboto%20Condensed')%2C%20local('RobotoCondensed-Regular')%2C%20url(https%3A%2F%2Ffonts.gstatic.com%2Fs%2Frobotocondensed%2Fv17%2FieVl2ZhZI2eCN5jzbjEETS9weq8-1927DRs5.woff2)%20format('woff2')%3B%0A%20%20unicode-range%3A%20U%2B0102-0103%2C%20U%2B0110-0111%2C%20U%2B1EA0-1EF9%2C%20U%2B20AB%3B%0A%7D%0A%2F*%20latin-ext%20*%2F%0A%40font-face%20%7B%0A%20%20font-family%3A%20'Roboto%20Condensed'%3B%0A%20%20font-style%3A%20normal%3B%0A%20%20font-weight%3A%20400%3B%0A%20%20src%3A%20local('Roboto%20Condensed')%2C%20local('RobotoCondensed-Regular')%2C%20url(https%3A%2F%2Ffonts.gstatic.com%2Fs%2Frobotocondensed%2Fv17%2FieVl2ZhZI2eCN5jzbjEETS9weq8-19y7DRs5.woff2)%20format('woff2')%3B%0A%20%20unicode-range%3A%20U%2B0100-024F%2C%20U%2B0259%2C%20U%2B1E00-1EFF%2C%20U%2B2020%2C%20U%2B20A0-20AB%2C%20U%2B20AD-20CF%2C%20U%2B2113%2C%20U%2B2C60-2C7F%2C%20U%2BA720-A7FF%3B%0A%7D%0A%2F*%20latin%20*%2F%0A%40font-face%20%7B%0A%20%20font-family%3A%20'Roboto%20Condensed'%3B%0A%20%20font-style%3A%20normal%3B%0A%20%20font-weight%3A%20400%3B%0A%20%20src%3A%20local('Roboto%20Condensed')%2C%20local('RobotoCondensed-Regular')%2C%20url(https%3A%2F%2Ffonts.gstatic.com%2Fs%2Frobotocondensed%2Fv17%2FieVl2ZhZI2eCN5jzbjEETS9weq8-19K7DQ.woff2)%20format('woff2')%3B%0A%20%20unicode-range%3A%20U%2B0000-00FF%2C%20U%2B0131%2C%20U%2B0152-0153%2C%20U%2B02BB-02BC%2C%20U%2B02C6%2C%20U%2B02DA%2C%20U%2B02DC%2C%20U%2B2000-206F%2C%20U%2B2074%2C%20U%2B20AC%2C%20U%2B2122%2C%20U%2B2191%2C%20U%2B2193%2C%20U%2B2212%2C%20U%2B2215%2C%20U%2BFEFF%2C%20U%2BFFFD%3B%0A%7D%0A%2F*%20cyrillic-ext%20*%2F%0A%40font-face%20%7B%0A%20%20font-family%3A%20'Roboto%20Condensed'%3B%0A%20%20font-style%3A%20normal%3B%0A%20%20font-weight%3A%20700%3B%0A%20%20src%3A%20local('Roboto%20Condensed%20Bold')%2C%20local('RobotoCondensed-Bold')%2C%20url(https%3A%2F%2Ffonts.gstatic.com%2Fs%2Frobotocondensed%2Fv17%2FieVi2ZhZI2eCN5jzbjEETS9weq8-32meGCkYb8td.woff2)%20format('woff2')%3B%0A%20%20unicode-range%3A%20U%2B0460-052F%2C%20U%2B1C80-1C88%2C%20U%2B20B4%2C%20U%2B2DE0-2DFF%2C%20U%2BA640-A69F%2C%20U%2BFE2E-FE2F%3B%0A%7D%0A%2F*%20cyrillic%20*%2F%0A%40font-face%20%7B%0A%20%20font-family%3A%20'Roboto%20Condensed'%3B%0A%20%20font-style%3A%20normal%3B%0A%20%20font-weight%3A%20700%3B%0A%20%20src%3A%20local('Roboto%20Condensed%20Bold')%2C%20local('RobotoCondensed-Bold')%2C%20url(https%3A%2F%2Ffonts.gstatic.com%2Fs%2Frobotocondensed%2Fv17%2FieVi2ZhZI2eCN5jzbjEETS9weq8-32meGCAYb8td.woff2)%20format('woff2')%3B%0A%20%20unicode-range%3A%20U%2B0400-045F%2C%20U%2B0490-0491%2C%20U%2B04B0-04B1%2C%20U%2B2116%3B%0A%7D%0A%2F*%20greek-ext%20*%2F%0A%40font-face%20%7B%0A%20%20font-family%3A%20'Roboto%20Condensed'%3B%0A%20%20font-style%3A%20normal%3B%0A%20%20font-weight%3A%20700%3B%0A%20%20src%3A%20local('Roboto%20Condensed%20Bold')%2C%20local('RobotoCondensed-Bold')%2C%20url(https%3A%2F%2Ffonts.gstatic.com%2Fs%2Frobotocondensed%2Fv17%2FieVi2ZhZI2eCN5jzbjEETS9weq8-32meGCgYb8td.woff2)%20format('woff2')%3B%0A%20%20unicode-range%3A%20U%2B1F00-1FFF%3B%0A%7D%0A%2F*%20greek%20*%2F%0A%40font-face%20%7B%0A%20%20font-family%3A%20'Roboto%20Condensed'%3B%0A%20%20font-style%3A%20normal%3B%0A%20%20font-weight%3A%20700%3B%0A%20%20src%3A%20local('Roboto%20Condensed%20Bold')%2C%20local('RobotoCondensed-Bold')%2C%20url(https%3A%2F%2Ffonts.gstatic.com%2Fs%2Frobotocondensed%2Fv17%2FieVi2ZhZI2eCN5jzbjEETS9weq8-32meGCcYb8td.woff2)%20format('woff2')%3B%0A%20%20unicode-range%3A%20U%2B0370-03FF%3B%0A%7D%0A%2F*%20vietnamese%20*%2F%0A%40font-face%20%7B%0A%20%20font-family%3A%20'Roboto%20Condensed'%3B%0A%20%20font-style%3A%20normal%3B%0A%20%20font-weight%3A%20700%3B%0A%20%20src%3A%20local('Roboto%20Condensed%20Bold')%2C%20local('RobotoCondensed-Bold')%2C%20url(https%3A%2F%2Ffonts.gstatic.com%2Fs%2Frobotocondensed%2Fv17%2FieVi2ZhZI2eCN5jzbjEETS9weq8-32meGCsYb8td.woff2)%20format('woff2')%3B%0A%20%20unicode-range%3A%20U%2B0102-0103%2C%20U%2B0110-0111%2C%20U%2B1EA0-1EF9%2C%20U%2B20AB%3B%0A%7D%0A%2F*%20latin-ext%20*%2F%0A%40font-face%20%7B%0A%20%20font-family%3A%20'Roboto%20Condensed'%3B%0A%20%20font-style%3A%20normal%3B%0A%20%20font-weight%3A%20700%3B%0A%20%20src%3A%20local('Roboto%20Condensed%20Bold')%2C%20local('RobotoCondensed-Bold')%2C%20url(https%3A%2F%2Ffonts.gstatic.com%2Fs%2Frobotocondensed%2Fv17%2FieVi2ZhZI2eCN5jzbjEETS9weq8-32meGCoYb8td.woff2)%20format('woff2')%3B%0A%20%20unicode-range%3A%20U%2B0100-024F%2C%20U%2B0259%2C%20U%2B1E00-1EFF%2C%20U%2B2020%2C%20U%2B20A0-20AB%2C%20U%2B20AD-20CF%2C%20U%2B2113%2C%20U%2B2C60-2C7F%2C%20U%2BA720-A7FF%3B%0A%7D%0A%2F*%20latin%20*%2F%0A%40font-face%20%7B%0A%20%20font-family%3A%20'Roboto%20Condensed'%3B%0A%20%20font-style%3A%20normal%3B%0A%20%20font-weight%3A%20700%3B%0A%20%20src%3A%20local('Roboto%20Condensed%20Bold')%2C%20local('RobotoCondensed-Bold')%2C%20url(https%3A%2F%2Ffonts.gstatic.com%2Fs%2Frobotocondensed%2Fv17%2FieVi2ZhZI2eCN5jzbjEETS9weq8-32meGCQYbw.woff2)%20format('woff2')%3B%0A%20%20unicode-range%3A%20U%2B0000-00FF%2C%20U%2B0131%2C%20U%2B0152-0153%2C%20U%2B02BB-02BC%2C%20U%2B02C6%2C%20U%2B02DA%2C%20U%2B02DC%2C%20U%2B2000-206F%2C%20U%2B2074%2C%20U%2B20AC%2C%20U%2B2122%2C%20U%2B2191%2C%20U%2B2193%2C%20U%2B2212%2C%20U%2B2215%2C%20U%2BFEFF%2C%20U%2BFFFD%3B%0A%7D%0A" style=""/></defs><title xmlns="http://www.w3.org/1999/xhtml">Link Editable</title><desc xmlns="http://www.w3.org/1999/xhtml"></desc><svg height="5181.599855871204" id="l2nhg32bwb" overflow="visible" v:setup="{&quot;paper&quot;:&quot;LEGAL&quot;,&quot;unit&quot;:&quot;cm&quot;,&quot;scale&quot;:{&quot;from&quot;:&quot;1&quot;,&quot;to&quot;:&quot;1&quot;},&quot;width&quot;:&quot;14in&quot;,&quot;height&quot;:&quot;8.5in&quot;,&quot;margin&quot;:{&quot;top&quot;:&quot;1&quot;,&quot;bottom&quot;:&quot;1&quot;,&quot;left&quot;:&quot;1&quot;,&quot;right&quot;:&quot;1&quot;}}" viewBox="0 0 1344 816" width="8534.399762611396"><g id="l3fqvtdym4" transform="translate(0.003868344796671863 3.4536728472994582)" class="NoPrint.cls"><path d="M 19.126534595234588 50.83864887327218 C 16.68653406117697 48.918650704326865 14.08653749440451 47.08264835447335 12.31053365681906 44.49464328855538 C 8.570536746723846 39.92863758176827 5.690533771259979 34.64464099973702 3.722534551365569 29.08864887327218 C 2.5325371167494803 25.47664936155343 2.1225363156630546 21.602646904888392 0.5905336878134759 18.12864025205636 C -1.0134655096695868 15.608641701641321 0.8665335318877252 12.848650055828333 3.630537166340545 12.048641282024622 C 4.860535754902557 11.812654572429896 7.022534026844696 10.648645478191614 4.410533561451629 11.480645256939173 C 2.0705362698866874 13.19664676755929 1.8445339343382867 9.920644837322474 4.244533195240692 9.712644654217005 C 5.884536876423553 9.492645340862513 6.484535827381805 8.15264328092599 5.924533977253631 6.948648529949427 C 4.164534702046112 5.800643044414759 10.188532962544159 4.542646008434534 7.156535281880096 2.82864721387887 C 4.000537051899627 -0.5713555040929319 11.572532787068084 -1.2273554030034544 9.704536571247772 2.640647965374231 C 9.260534419758514 5.612643319072962 14.996533527119354 2.0926447686579226 13.664533748371795 5.5286436852839 C 15.018536700947479 7.178644257488489 18.732535495503143 5.904643135967493 18.638535632832244 8.218644219341517 C 20.610535754902557 8.354643898906946 21.286534442646698 10.012645798626185 23.138535632832244 10.138649064007044 C 25.05853570912619 11.00464351743722 28.53253473256369 11.686643677654505 29.184535159809784 13.848649102154017 C 27.28453554127951 15.354647713604212 22.87853540395041 10.738643723430872 22.66453470204611 14.908642846050501 C 23.24053491566916 21.068644600811243 23.092534198506073 27.412648278179407 25.344535007221893 33.27863987058663 C 26.410534991963104 36.82864292234444 28.994534625752166 39.62464817136788 31.32453454945822 42.390643197002646 C 33.55853380177756 45.098651009502646 36.58453477834006 47.0066481408503 39.664536609394744 48.610640603008505 C 42.36853517506857 49.88664539426827 45.28453554127951 50.73064334959054 48.23053468678732 51.2626410302546 C 49.42453493092795 50.348651009502646 51.5365344426467 46.95064457029366 53.39853395436545 48.382647591533896 C 53.48853410695334 49.994647103252646 49.69853700612326 51.75065143674874 53.218533649189666 51.57263858884835 C 55.288533344013885 50.94863803953194 56.72253526662131 53.17264087766671 58.42453493092795 51.164649086895224 C 59.994534625752166 53.02465351194405 64.94453538869162 49.97864444822335 63.83053697560568 53.776648598613974 C 62.32053483937521 54.75065143674874 60.11853517506857 54.16264637083077 58.606534137470916 55.50264652341866 C 56.112534656269744 54.2566481408503 54.12653459523459 56.6166449365046 51.366536273701385 56.31864460081124 C 48.30053438161154 56.86865146726632 45.18253435109396 57.08864887327218 42.074536456806854 57.09265430540108 C 36.974534167988494 56.69264133543038 31.768534793598846 56.52065189451241 26.91853441212912 54.74464328855538 C 24.184535159809784 53.950640755596396 21.518534793598846 52.39464481443429 19.118535175068573 50.836646157207724 Z M 23.432534351093963 52.70464237302804 C 26.10053552602072 53.85665424436593 28.71253503773947 55.07264621824288 31.632535114033416 55.440650063457724 C 36.272534503681854 56.08464344114327 41.0625354192092 57.080638009014365 45.718533649189666 56.17264087766671 C 43.61053575490256 55.220652657451865 41.43253435109396 56.542647438946005 39.33253587697287 55.492652016582724 C 36.8125354192092 56.03264530271554 34.132535114033416 55.352637368145224 31.53253473256369 55.01864536375069 C 28.62253488515158 53.72264774412179 25.480534686787323 52.83065326780343 22.756535663349823 51.146643715801474 C 19.35053552602072 49.90264804929757 24.51653779958029 52.74264057249093 25.436535968525604 52.97265155881905 C 27.564534320576385 54.18065174192452 23.096535815937713 52.37264927000069 22.46453584645529 51.85264881223702 C 20.680535449726776 50.85264881223702 20.454535617573455 51.06064899534249 22.288535251362518 52.07665165037179 L 23.408536090595916 52.70464237302804 Z M 18.35253442738791 49.11664112180733 C 20.93853486989279 50.07665546506905 18.340535297138885 47.29663761228585 17.158536090595916 47.45664508909249 C 16.634534015400604 46.546641426983115 15.152533664448455 45.9706373986628 16.198533191425994 45.48264606565499 C 14.31853498433371 46.13464649290108 14.230534686787323 43.00264652341866 13.348536624653534 43.45065601438546 C 11.360535754902557 42.822650032940146 12.574535503132537 40.59864719480538 10.20853342030783 39.23064334959054 C 9.992535724384979 37.79064472288155 7.8565331837966 36.54464634031319 7.176535739643768 34.374644356670615 C 6.876534595234588 33.262652474346396 4.762535228474334 30.07464511961007 6.060533656819061 33.04265506834054 C 7.164537086231903 35.9026556786921 9.108534946186737 38.348643380108115 10.728533878071502 40.79264362424874 C 11.984536304218963 43.12064655393624 13.4685355565383 45.552649575176474 15.75653375600119 47.0066481408503 C 16.528536929829315 47.7466498193171 17.272536411030487 48.88063724607491 18.360535754902557 49.11265094846749 Z M 10.904534473164276 40.93664844602608 C 10.994537486775116 40.54664524168038 11.376535548908905 41.78064640134835 10.904534473164276 40.93664844602608 Z M 21.450535907490448 50.2626410302546 C 22.022534503681854 50.0066481408503 20.626534595234588 49.938643532696005 21.450535907490448 50.2626410302546 Z M 22.85053552602072 50.77464969724679 C 22.704535617573455 50.06864460081124 22.21053422902365 51.17064197629952 22.85053552602072 50.77464969724679 Z M 24.610535754902557 51.50665577024483 C 25.446534290058807 50.710650521221396 23.320534839375213 51.0066481408503 24.610535754902557 51.50665577024483 Z M 27.62253488515158 53.18664463132882 C 28.130534305317596 52.43664844602608 25.996535434467987 52.90664966672921 27.62253488515158 53.18664463132882 Z M 21.842534198506073 49.15664203733468 C 23.142535342915252 48.31664569944405 20.162535800678924 49.14464099973702 21.842534198506073 49.15664203733468 Z M 23.162535800678924 49.81665332883858 C 23.12253488515158 49.37264927000069 22.6925345799758 50.01664264768624 23.162535800678924 49.81665332883858 Z M 29.748534335835174 53.9286452111628 C 30.80853570912619 54.59665210813546 35.93253435109396 55.39263828367257 32.724534167988494 54.202647286358115 C 32.18453325246115 54.31463916868233 26.774535312397674 52.67064960569405 29.748534335835174 53.9286452111628 Z M 19.292534961445526 45.78464801877999 C 19.1925345799758 45.3406439599421 17.64853586171408 45.29265125364327 19.292534961445526 45.78464801877999 Z M 22.358534946186737 47.572642403545615 C 23.158536090595916 47.0126410302546 20.702534808857635 47.14264209836983 22.358534946186737 47.572642403545615 Z M 24.958535327656463 49.172644692363974 C 26.10453523610373 48.74064167112374 23.10253442738791 48.73865421384835 24.958535327656463 49.172644692363974 Z M 18.040536060078338 44.422652321758505 C 19.280535831196502 45.37465580076241 23.05253519032736 44.54265506834054 19.94053567860861 43.85464008420968 C 18.52653421376486 43.10063846677804 15.340537204487518 42.58464344114327 17.512534274800018 44.308638649883505 L 18.038535251362518 44.422652321758505 Z M 26.680535449726776 49.69665058225655 C 27.200535907490448 48.81663807004952 24.50853456471701 49.192637520733115 26.680535449726776 49.69665058225655 Z M 24.054535999043182 47.610640603008505 C 27.094535007221893 48.47064502805733 21.500535144550994 45.69064624876046 23.304535999043182 47.29064853757882 L 23.704535617573455 47.47064502805733 L 24.054535999043182 47.60665042966866 Z M 29.318535938008026 50.65064151853585 C 32.19853700612326 50.67864139646554 26.7185355565383 50.25064380735421 29.318535938008026 50.65064151853585 Z M 16.932534351093963 42.7566481408503 C 16.820534839375213 42.22064502805733 16.222535266621307 42.80065448850655 16.932534351093963 42.7566481408503 Z M 34.186535968525604 53.38064106077218 C 34.26253618214865 52.41265018552804 33.246533527119354 54.10064991086983 34.186535968525604 53.38064106077218 Z M 21.846535815937713 45.76064975828194 C 21.67253602956076 45.250647622051474 20.946534290058807 45.74064167112374 21.846535815937713 45.76064975828194 Z M 17.206534518940643 42.42064960569405 C 18.858534946186737 42.320654946270224 14.94653619740744 41.69264896482491 17.206534518940643 42.42064960569405 Z M 11.712534084065155 38.87264927000069 C 11.506535663349823 38.08064945310616 9.9165336034133 37.44863803953194 11.712534084065155 38.87264927000069 Z M 26.136534824116424 48.02664096921944 C 25.836535587055877 47.680647927227255 25.996535434467987 48.1006537255671 26.136534824116424 48.02664096921944 Z M 35.112534656269744 53.53664310544991 C 35.08453477834006 53.00864704221749 34.6245356938674 53.73664768308663 35.112534656269744 53.53664310544991 Z M 25.342534198506073 47.206641274395224 C 25.502535953266815 46.526648598613974 23.932534351093963 47.00064380735421 25.342534198506073 47.206641274395224 Z M 18.654534473164276 42.966651040020224 C 19.884535922749237 42.83664997190499 16.684537067158416 42.1366530236628 18.654534473164276 42.966651040020224 Z M 29.96653474782248 49.9966498193171 C 31.882535114033416 49.236643868389365 28.10053552602072 49.6266432580378 29.96653474782248 49.9966498193171 Z M 24.08253587697287 46.00264652341866 C 26.288535251362518 46.28664310544991 21.456534518940643 44.50265415281319 23.596535815937713 45.84263904661202 L 24.08253587697287 46.00264652341866 Z M 31.752535953266815 50.718646126690146 C 33.8125354192092 49.48865039915108 33.132535114033416 53.60464771360421 35.24853624318381 51.06664188474679 C 37.33453477834006 49.54265125364327 33.44853700612326 52.950640755596396 36.016533984883026 51.338641243877646 C 37.87653459523459 50.09464557737374 40.62253679250021 51.9286452111628 42.356534137470916 52.52464588254952 C 43.60453523610373 52.46465213865304 44.81653703664084 53.60464771360421 46.09653581593771 52.91063984006905 C 48.55653490041037 52.2466383752253 41.28053392384787 51.92664249509835 43.18853486989279 50.75065143674874 C 40.936535968525604 51.40664203733468 39.272534503681854 49.970652657451865 38.16253389333029 48.526648598613974 C 35.634534015400604 47.94264896482491 32.71453584645529 46.65064151853585 31.452534808857635 44.41464145750069 C 30.93853486989279 43.57464893430733 32.19253648732443 44.534644204082724 31.00853456471701 43.16064746946358 C 29.48853601430197 41.80664737791085 28.728535785420135 40.26864154905343 27.704533710224823 38.620642739238974 C 26.48453439687033 37.97064121336007 26.338534488423065 36.052649575176474 26.21653474782248 38.55664356321358 C 26.226534976704315 36.97664936155343 24.74253572438498 35.91065128416085 24.376534595234588 36.35264881223702 C 24.370535983784393 34.83264835447335 25.96653474782248 35.59264286130929 24.848536624653534 34.46864994138741 C 24.608534946186737 32.888655739727255 23.816535129292205 31.248652535381556 23.58053506825705 29.464648323955775 C 23.21053422902365 28.604643898906946 23.528535022480682 26.764651375713587 22.320534839375213 28.710646706524134 C 21.880534305317596 30.76464756101632 22.174534930927948 26.18664272398019 22.860535754902557 27.694644051494837 C 23.76053537343283 26.154650765362025 22.536534442646698 26.334649163189173 22.48853601430197 26.548640328350306 C 23.07453454945822 25.248639183941126 22.860535754902557 23.40464122861886 22.334534778340057 24.108643608989954 C 22.646533145649627 22.728640633526087 22.82853425954123 19.03864009946847 21.868535175068573 19.692647057476282 C 22.448535098774627 18.252648430767298 22.972535266621307 13.098654824199915 20.44453538869162 15.06264026731515 C 19.42053522084494 15.076642113628626 17.64853586171408 15.434651452007532 16.810534610493377 15.85065181821847 C 19.436535968525604 17.29864223569894 16.546534671528534 16.374640541973353 15.474534167988494 16.142642098369837 C 15.33453382466574 17.48264415830636 14.27453626607199 16.902649956646204 12.954534663899139 16.91665180295968 C 15.070536746723846 17.176652031841517 11.924534930927948 19.076640206279993 10.714536800129608 18.340645867290736 C 9.138535632832244 19.09264286130929 12.074535503132537 20.972638207378626 10.74453367207785 21.554650383892298 C 10.9085351369216 22.428639489116907 8.330536975605682 21.23864658445382 8.532533778889373 23.262642937603236 C 7.004536285145477 22.61864955991769 8.322534694416717 25.662654000225306 9.088534488423065 24.632649498882532 C 11.688535823567108 25.336651879253626 10.918536319477752 26.94064434141183 10.98453725789328 28.466651040020228 C 10.560534610493377 29.35464008420968 8.892537250263885 26.37864025205636 10.612534656269744 26.516650277080775 C 9.252535953266815 24.31065281003976 9.11253560994406 25.71663959592843 7.982536449177459 26.74464138120675 C 7.722536220295623 26.818654137554407 10.862534656269744 28.20464809507394 8.890534534199432 28.88465412229562 C 10.624533786518768 29.15264804929757 10.674535884602264 30.67064579099679 11.02653707478781 31.628642159404993 C 12.066533221943573 32.71464832395577 11.852534427387909 30.42864902586007 13.100534572346405 31.734641152324915 C 12.31053365681906 30.57463749021554 8.92053522084494 28.46064289182687 11.650532855732635 29.13464267820382 C 11.63653577779074 27.966643410625696 11.156537189228729 27.02264888853097 11.9945365331008 27.044644432964564 C 12.824534549458221 25.544652062359095 11.126535548908905 30.74463947385812 12.9945365331008 28.836642342510462 C 13.51053537343283 28.610652047100306 13.640535487873748 27.336651879253626 14.56853498433371 28.956646996441126 C 15.916534557087616 30.284648018779993 15.056535854084686 31.24464710325265 13.152534618122772 30.028655129375696 C 13.492533817036346 31.184653359356165 15.69853414510031 31.596648293438196 15.282533778889373 33.40264804929757 C 15.722535266621307 34.99265583127999 16.336535587055877 34.406653481426474 16.87253488515158 34.31465061277413 C 17.272536411030487 35.85864933103585 17.53253473256369 34.72264392942452 17.55253519032736 33.98865039915108 C 19.476534976704315 34.400645333233115 19.024535312397674 35.53863819211983 19.62853540395041 36.33264072507882 C 20.954535617573455 36.93264301389718 17.728535785420135 32.27663715452218 20.008532657368377 34.93264682859444 C 22.402535571797088 37.09265049070382 20.908536090595916 37.99864490598702 18.75853456471701 37.65265186399483 C 20.118535175068573 37.54264362424874 20.55853570912619 39.49264438718819 22.25853456471701 39.422652321758505 C 23.810534610493377 40.1626540002253 24.858534946186737 42.9966383752253 22.186535968525604 41.81463916868233 C 21.26053537343283 40.97865207761788 17.974536075337127 39.94664295286202 20.658536090595916 41.53464801877999 C 23.134535922749237 42.682654457988974 25.10253442738791 43.366648751201865 27.49053491566916 44.80864627927804 C 29.198535098774627 46.008650856914755 29.936535968525604 47.42465122312569 30.584534778340057 47.70264347166085 C 29.148537769062713 48.388655739727255 26.256535663349823 47.154639321270224 28.384535922749237 46.77663715452218 C 27.044535770161346 46.53264148801827 25.536534442646698 45.85664280027413 26.820534839375213 47.52464588254952 C 27.912537708027557 48.43664844602608 30.686535968525604 48.3406439599421 31.184535159809784 48.44464405149483 C 30.764535083515838 49.37264927000069 30.038535251362518 49.44464405149483 31.200535907490448 49.51863773435616 C 29.904534473164276 50.210642891826865 31.616534366352752 50.318648415508505 31.73653520558615 50.71265323728585 Z M 29.10053552602072 43.23063953489327 C 28.310534610493377 42.404646950664755 28.10653604481955 40.86064823240304 28.96053422902365 42.20463855833077 C 29.400534763081268 42.38064869016671 30.360535754902557 44.7306471642878 29.10053552602072 43.23063953489327 Z M 37.74053682301779 48.692645150127646 C 38.23253358815451 48.660655098858115 37.754536761982635 49.06664188474679 37.74053682301779 48.692645150127646 Z M 27.86053766225119 41.18264682859444 C 27.82853425954123 39.93464572996163 28.14453424428244 42.14264209836983 27.86053766225119 41.18264682859444 Z M 27.000535144550994 40.02864749998116 C 26.006535663349823 38.108653145733115 28.250535144550994 40.568640786113974 27.000535144550994 40.02864749998116 Z M 16.596535815937713 32.82864673704171 C 17.180535449726776 32.672644692363974 16.884534015400604 33.8246413049128 16.596535815937713 32.82864673704171 Z M 24.876534595234588 37.31665332883858 C 25.23653520558615 35.97064502805733 25.27653421376486 38.444651680889365 24.876534595234588 37.31665332883858 Z M 19.02653421376486 33.24865253538155 C 18.614535464985565 32.508650856914755 19.886534824116424 33.94464405149483 19.02653421376486 33.24865253538155 Z M 24.046534671528534 34.856646614971396 C 23.10653604481955 32.750647622051474 24.71453584645529 33.70663745969796 24.25653375600119 35.20065601438546 L 24.046534671528534 34.856646614971396 Z M 15.390534534199432 29.084643441143275 C 14.990533961994842 28.392640191021204 14.276535167439178 26.364638405742884 14.500535144550994 25.744643288555384 C 14.700533046467498 26.752652245464564 16.64453424428244 30.084643441143275 15.452534808857635 27.144654351177454 C 14.136534824116424 24.664641457500696 17.02653421376486 27.94865329832101 17.32453454945822 28.56864841550851 C 17.464537753803924 29.182650643291712 16.512532367451385 28.400649147930384 17.156533374531463 29.844653206768275 C 15.980533733113006 28.200642662945032 16.46253503773947 30.75265033811593 15.392537250263885 29.104651528301478 Z M 12.716533794148162 27.24064548582101 C 12.826533450825409 25.632649498882532 13.328535213215545 28.340640145244837 12.716533794148162 27.24064548582101 Z M 13.920536174519256 27.656645852031946 C 14.494535579426483 26.44464023679757 14.89253343556662 29.34664447874093 13.920536174519256 27.656645852031946 Z M 11.000537051899627 25.456639367046595 C 10.004533900959686 24.46665294736886 9.28453554127951 23.55665309995675 11.04853643391867 24.842652398052454 C 11.728532924397186 24.86865146726632 9.538536205036834 22.76864154905343 11.212534084065155 24.174645501079798 C 12.97253717396994 24.49463947385812 12.08053506825705 27.06064708799386 11.002534999592498 25.454653817119837 Z M 12.520536555988983 25.41663845151925 C 13.100534572346405 24.842652398052454 12.828536166889862 25.980645256939173 12.520536555988983 25.41663845151925 Z M 13.456537379963592 25.71663959592843 C 12.576533450825409 24.072648125591517 14.520535602314666 26.40664203733468 13.456537379963592 25.71663959592843 Z M 11.596534862263397 23.94064434141183 C 8.700536861164764 21.360652047100306 15.236537112934784 25.286654549541712 12.068535938008026 24.420643883648157 L 11.596534862263397 23.94064434141183 Z M 19.892535342915252 28.760644036236048 C 18.638535632832244 28.010649758281946 19.55853570912619 23.472645836773157 19.98653520558615 26.574641304912806 C 21.206534518940643 26.180651741924525 19.91853441212912 28.17864711851144 20.82653535817404 28.158639031353236 C 20.686535968525604 29.41863926023507 20.27653421376486 29.8726378259089 19.892535342915252 28.758641320171595 Z M 22.96053422902365 30.57463749021554 C 23.08053506825705 29.20664890378976 23.220534457905487 31.51063831419015 22.96053422902365 30.57463749021554 Z M 22.428536548359588 30.046645241680384 C 22.568535938008026 29.46264560789132 22.44053567860861 30.73464496702218 22.428536548359588 30.046645241680384 Z M 12.184535159809784 23.092640953960657 C 10.324536456806854 20.526648598613978 17.590535297138885 25.688653069439173 13.376534595234588 23.74264057249093 C 12.93653692219992 23.626643258037806 12.406536235554412 23.58664043516183 12.184535159809784 23.092640953960657 Z M 18.094535007221893 26.22464092344308 C 17.91853441212912 24.0646544274714 18.48653520558615 26.58465297788644 18.094535007221893 26.22464092344308 Z M 22.58053506825705 29.104651528301478 C 22.926535739643768 27.874642449321986 22.60653604481955 29.918646889629603 22.58053506825705 29.104651528301478 Z M 12.470535411579803 22.112650948467493 C 13.576537265522674 21.87664707273507 17.070534839375213 24.052640038433314 13.86053480122824 22.732646065654993 C 13.506534709675506 22.34064205259347 12.748533382160858 22.51865490049386 12.470535411579803 22.112650948467493 Z M 21.96253503773947 26.844653206768275 C 22.08253587697287 24.634652214946986 22.62253488515158 25.524643975200892 21.96653474782248 27.164647179546595 L 21.96253503773947 26.844653206768275 Z M 13.292534961445526 21.344647484722376 C 13.744535579426483 20.684651452007532 12.096534862263397 18.358651238384486 13.528534068806366 20.51064594358468 C 14.128536357624725 21.0026427087214 15.322534694416717 21.33465297788644 14.288533344013885 21.542653160991907 C 15.918537273152069 22.98264988035226 13.888532771809295 21.932652550640345 13.294533862812713 21.342646676006556 Z M 21.49253572438498 26.156638222637415 C 21.80253519032736 23.63665493101144 21.76653589223166 27.630644875469446 21.49253572438498 26.156638222637415 Z M 12.352533473713592 19.020649987163782 C 12.69653333638449 18.872643547954798 12.532535686238006 19.480641442241907 12.352533473713592 19.020649987163782 Z M 14.49253286336203 20.294652062359095 C 15.04253400777121 19.138651925029993 15.508536472065643 21.58265407651925 14.49253286336203 20.294652062359095 Z M 20.52653421376486 23.65063961118722 C 20.522534503681854 23.21064289182687 20.640534534199432 24.296650963726282 20.52653421376486 23.65063961118722 Z M 20.176535739643768 22.878649788799525 C 19.340535297138885 20.812649804058314 20.976534976704315 23.97265346616769 20.176535739643768 22.878649788799525 Z M 19.662535800678924 21.52264316648507 C 19.522534503681854 20.668648796978236 20.142535342915252 22.594651299419642 19.662535800678924 21.52264316648507 Z M 20.498534335835174 20.162648278179407 C 19.92253602956076 19.150651055279017 21.224536075337127 15.702645379009486 21.370535983784393 17.842639046612025 C 20.764535083515838 19.51064594358468 21.196534290058807 20.442641335430384 21.616534366352752 18.202651101055384 C 22.39653505299826 16.442643242779017 21.448535098774627 21.67664058774972 20.496535434467987 20.162648278179407 Z M 21.358534946186737 15.030648308696986 C 21.608534946186737 14.722638207378626 21.41453470204611 15.400641518535853 21.358534946186737 15.030648308696986 Z M 19.92053522084494 43.332652169170615 C 19.58053506825705 43.03265293211007 19.96453584645529 43.52064426511788 19.92053522084494 43.332652169170615 Z M 22.880534305317596 44.82863910764718 C 24.52653421376486 45.25265033811593 24.520535602314666 44.572642403545615 23.030535831196502 44.36864765256905 C 22.230534686787323 43.624644356670615 19.706534518940643 42.83464725584054 21.96653474782248 44.276648598613974 C 22.114535464985565 44.67664249509835 22.586535587055877 44.64665515989327 22.880534305317596 44.82665165037179 Z M 17.040534152729705 40.948645668926474 C 17.946534290058807 41.62864978879952 20.454535617573455 42.86465366453194 18.33253587697287 41.20864399045968 C 19.048535480244354 40.3766432580378 16.96253503773947 39.93264301389718 17.652535571797088 39.37664707273507 C 15.892537250263885 38.29664524168038 16.262532367451385 38.37664707273507 17.496535434467987 38.430647927227255 C 15.380534305317596 37.48465259641671 17.80253519032736 37.55664356321358 17.68853486989279 37.070654946270224 C 16.87253488515158 36.91064746946358 13.636534824116424 35.63064106077218 15.540535106404022 37.17465503782296 C 13.604535236103729 36.18863971799874 15.080533160908416 37.54264362424874 14.494535579426483 37.400645333233115 C 12.4945365331008 36.8606520471003 16.254534854634002 38.90864475339913 14.180536403401092 38.400645333233115 C 15.314537181599334 39.30064685911202 17.23653520558615 40.70665271848702 14.66053594563742 39.35264881223702 C 14.32053293202658 39.84064014524483 16.504534854634002 40.58264453977608 17.060534610493377 40.95265110105538 Z M 20.134535922749237 42.72864444822335 C 23.89453424428244 43.940650063457724 18.288535251362518 41.24864490598702 20.134535922749237 42.72864444822335 Z M 35.974534167988494 52.32463749021554 C 36.022534503681854 51.576644020977255 35.46053422902365 52.96464069456124 35.974534167988494 52.32463749021554 Z M 37.60253633473654 53.01064975828194 C 38.47053636525412 52.17064197629952 37.638535632832244 54.3506537255671 39.042534961445526 52.80465229124093 C 39.05653490041037 51.69864948362374 39.00253404591818 51.04464634031319 37.430535449726776 52.38865192502999 C 36.996533527119354 52.628645974102255 36.80453599904318 53.64865406126046 37.60453523610373 53.00864704221749 Z M 11.756535663349823 36.772654610576865 C 11.490535869343475 35.72464283079171 9.888535632832244 35.728648262920615 11.756535663349823 36.772654610576865 Z M 13.49653448079367 37.91265018552804 C 12.850534572346405 36.84264667600655 11.192537440998748 36.94264133543038 13.49653448079367 37.91265018552804 Z M 23.388535632832244 43.87865360349679 C 24.35453523610373 44.73863895505929 27.82453454945822 44.50864704221749 24.560534610493377 43.98464115232491 C 24.08053506825705 43.270640450420615 21.494534625752166 43.4446478661921 23.388535632832244 43.87865360349679 Z M 36.98453630421896 52.278643685283896 C 38.47053636525412 51.03064640134835 35.54453386281271 52.83464344114327 36.98453630421896 52.278643685283896 Z M 40.07653535817404 54.40265186399483 C 40.086533679707244 54.00263889402413 39.436535968525604 54.576644020977255 40.07653535817404 54.40265186399483 Z M 40.08253587697287 53.84265049070382 C 41.728535785420135 52.10265262693429 38.48853410695334 53.942645150127646 40.08253587697287 53.84265049070382 Z M 7.480534209950164 33.192645150127646 C 6.080534114582733 31.192648964824915 6.608536376698211 30.292643624248743 5.256535663349823 28.658646660747767 C 5.000536098225311 27.408644753399134 2.936534538014129 24.572638588848353 4.188536300404266 27.57864482969308 C 5.336534156544403 29.338652687969446 5.676536693318084 32.05864246458077 7.480534209950164 33.19863803953194 Z M 39.56053651784201 53.284651833477255 C 42.590535297138885 51.32864292234444 38.32053483937521 52.43264301389718 39.56053651784201 53.284651833477255 Z M 41.87253679250021 54.19064624876046 C 43.39253343556662 52.89064701169991 40.91253389333029 53.918650704326865 41.87253679250021 54.19064624876046 Z M 11.240536823017791 34.56265171140694 C 11.674534930927948 33.91664035886788 10.120533122761444 34.47864444822335 11.240536823017791 34.56265171140694 Z M 41.39053453419943 53.57263858884835 C 42.85853685353537 52.6266432580378 41.05053438161154 52.77264698118233 41.1245356938674 53.658648568096396 L 41.39053453419943 53.57263858884835 Z M 21.46653474782248 41.012644844951865 C 21.416535510761932 40.37264164060616 20.69053567860861 41.06664569944405 21.46653474782248 41.012644844951865 Z M 22.696534290058807 41.720652657451865 C 22.304535999043182 40.92865284055733 22.096537723286346 41.84464557737374 22.696534290058807 41.720652657451865 Z M 43.746533527119354 54.2106390771296 C 45.62653459523459 52.85064609617257 42.606534137470916 53.950640755596396 43.35253633473654 54.47064121336007 L 43.746533527119354 54.2106390771296 Z M 43.026536121113494 53.86264331907296 C 44.56053651784201 52.57864673704171 41.40653337453146 54.43065555662179 43.026536121113494 53.86264331907296 Z M 46.706536426289276 56.31265171140694 C 47.73453630421896 55.624651986065146 45.456536426289276 56.09265430540108 46.706536426289276 56.31265171140694 Z M 12.186533107502655 34.09265049070382 C 13.566537036640838 34.400645333233115 17.696534290058807 37.48863895505929 15.260534419758514 34.30664356321358 C 14.012534274800018 33.93665226072335 14.76053537343283 30.886637764873743 13.486534251911834 31.42664630979562 C 14.340533389790252 32.85464771360421 14.186535968525604 33.46264179319405 12.394533290608123 32.56265552610421 C 10.140533580525116 31.46264560789132 11.128534450276092 33.10665424436593 11.568535938008026 33.56265552610421 C 10.968537463886932 33.70265110105538 12.362533702595428 34.08265598386788 12.188535823567108 34.09465320676827 Z M 5.906535758717254 29.13265522092843 C 6.15253509495993 28.112647133770228 3.632535590870574 23.5126467523005 4.716534747822479 26.828648644390345 C 5.1065346143080745 27.522639351787806 5.066533698780731 28.838645058574915 5.906535758717254 29.13265522092843 Z M 17.43853486989279 36.24264057249093 C 16.726536884052948 35.64864643186593 17.404534473164276 36.15865238279366 17.43853486989279 36.24264057249093 Z M 19.186535968525604 36.65064914793038 C 19.186535968525604 35.57064731687569 17.254534854634002 36.210650521221396 19.186535968525604 36.65064914793038 Z M 34.340535297138885 46.20265110105538 C 34.05053438161154 45.46265323728585 33.20053590749045 46.18664844602608 34.340535297138885 46.20265110105538 Z M 35.068535938008026 46.73464878171944 C 34.96053422902365 46.32065113157296 34.66853441212912 46.814654427471396 35.068535938008026 46.73464878171944 Z M 41.074536456806854 50.51863773435616 C 41.654534473164276 50.09264286130929 40.35453523610373 50.46264942258858 41.074536456806854 50.51863773435616 Z M 9.040535106404022 29.936652260723353 C 10.692533626301483 29.29664905637765 7.270535602314666 29.48065097898507 9.040535106404022 29.936652260723353 Z M 33.000535144550994 45.0326491174128 C 32.98053468678732 43.96264560789132 31.946534290058807 45.2986403283503 33.000535144550994 45.0326491174128 Z M 8.386533870442108 28.412648278179407 C 9.446535243733123 28.052653389873743 7.406535281880096 28.17664630979562 8.386533870442108 28.412648278179407 Z M 11.466534747822479 29.90464695066476 C 11.446534290058807 29.552645760479212 11.140537395222381 30.038649636211634 11.466534747822479 29.90464695066476 Z M 49.042534961445526 52.9446478661921 C 50.40653337453146 52.6686468896296 53.51853670094748 53.63864048093819 54.022534503681854 52.58465488523507 C 52.362534656269744 52.544653969707724 48.288533344013885 51.41463764280343 48.09653581593771 52.85264881223702 L 48.456536426289276 52.912642556133505 L 49.042534961445526 52.94863803953194 Z M 12.44653333638449 30.15264804929757 C 12.470535411579803 29.068640786113978 11.602534427387909 30.112647133770228 12.44653333638449 30.15264804929757 Z M 4.346534862263397 24.532654839458704 C 3.978533878071502 22.46864040464425 2.946535005314544 24.2206545648005 4.346534862263397 24.532654839458704 Z M 6.276535644276336 25.018645363750696 C 6.3005372426344906 24.354643898906946 4.50853456471701 24.42264659971261 6.276535644276336 25.018645363750696 Z M 7.380535258991912 25.55865390867257 C 7.060536994679168 25.298653679790736 7.132533683521942 25.884638863506556 7.380535258991912 25.55865390867257 Z M 14.326536311848358 30.012648659649134 C 14.654536380512909 29.712649422588587 13.552535190327362 29.792651253643275 14.326536311848358 30.012648659649134 Z M 6.64653505299826 24.332648354473353 C 6.458535804493621 22.772646981182337 4.406536712391571 24.098647194805384 6.64653505299826 24.332648354473353 Z M 2.686534776432708 21.762650566997767 C 2.6305338284804374 21.042643624248743 2.3005353352858573 22.034649926128626 2.686534776432708 21.762650566997767 Z M 3.276533260090545 21.31864841550851 C 3.180534972889617 20.46465213865304 2.7705341718031913 21.42665393919015 3.276533260090545 21.31864841550851 Z M 6.5305363080336605 23.258652764263392 C 7.906534805042938 22.718644219341517 4.024534358723358 22.13865001768136 6.250535621388153 23.1586428460505 L 6.5305363080336605 23.258652764263392 Z M 50.086533679707244 50.172644692363974 C 50.96653474782248 49.364642220440146 48.96653474782248 49.92265613645577 50.086533679707244 50.172644692363974 Z M 55.34653581593771 52.89864261716866 C 55.70053590749045 51.85864170164132 54.456536426289276 53.038653450908896 55.34653581593771 52.89864261716866 Z M 6.8605348012282406 21.562644082012415 C 7.006534709675506 20.552649575176478 5.76853383992453 21.762650566997767 6.8605348012282406 21.562644082012415 Z M 2.2285348317458182 18.46265132993722 C 1.9845342776610406 17.03265102476144 2.0205346486403495 14.532643395366907 4.396536483509735 15.376643258037806 C 1.222535981877044 16.008652764263392 6.596533431751922 19.324641304912806 5.916536464436248 16.704646187725306 C 7.252533569081024 16.77064807981515 8.528536929829315 15.914649086895228 7.826536311848358 17.2106447991755 C 10.460536136372284 16.924645501079798 12.280532970173553 14.640648919048548 14.824533595783905 14.962645607891321 C 16.824532642109588 14.69863994688058 18.9685355565383 14.502638894024134 21.10453523610373 13.702645379009486 C 22.858534946186737 13.576649743023157 24.544535770161346 11.688645440044642 23.584534778340057 10.56864269346261 C 21.192536487324432 10.36864383787179 18.68853486989279 10.664649086895228 16.044535770161346 11.192650872173548 C 13.114536418659881 11.800639229717493 10.454536571247772 12.958642083111048 7.498536243183807 13.45264156431222 C 4.618533744557098 13.840640145244837 8.078534259541229 14.518643456402064 7.252533569081024 14.672640877666712 C 5.75253452275534 15.192641335430384 9.046534671528534 15.54464252561593 7.058534755451873 16.09665020078683 C 5.830534591419891 15.86264904111886 4.552536620838836 15.440642434063196 5.078536166889862 14.146649437847376 C 2.3185335538222342 14.50664432615304 -0.1074658491776435 15.650645333233118 2.074533118946746 18.458645897808314 L 2.234534158451751 18.460648613872767 Z M 8.88453496907492 15.092644768657923 C 9.530534877522186 12.708653527202845 12.350535526020721 17.05264385313058 9.944536342365936 15.412638741436243 C 9.658536090595916 15.196644860210657 9.1845361134841 15.022639351787806 8.88453496907492 15.092644768657923 Z M 9.010534419758514 13.936646538677454 C 9.944536342365936 13.242638665142298 9.506532802326873 14.326645928325892 9.010534419758514 13.936646538677454 Z M 10.196535243733123 13.956654625835657 C 10.282536639912323 12.860649186077357 12.912535800678924 14.556641655864954 10.630537166340545 14.350644188823939 L 10.196535243733123 13.956654625835657 Z M 11.816534175617889 13.30465229124093 C 12.410533084614471 12.610645371380091 11.988533153279022 13.918639260235071 11.816534175617889 13.30465229124093 Z M 12.23253358815451 13.024643021526575 C 13.220534457905487 11.83865459531808 17.818535938008026 12.264651375713587 14.43253530476828 12.908643799724818 C 13.53253473256369 12.228638726177454 12.838536395771698 13.308640557232142 12.23253358815451 13.024643021526575 Z M 18.232535495503143 12.098638611736536 C 18.084534778340057 8.858648377361536 21.21653474782248 13.248646813335657 18.232535495503143 12.098638611736536 Z M 19.936535968525604 12.088642197551966 C 20.55653490041037 10.456648903789759 22.35653604481955 11.432650643291712 20.226533069355682 11.760654526653529 C 20.272534503681854 11.934644776287318 20.162535800678924 12.60465343565011 19.936535968525604 12.088642197551966 Z M 6.190533771259979 20.742642479839564 C 8.050536288960174 19.602646904888392 4.216534747822479 19.754641610088587 6.190533771259979 20.742642479839564 Z M 7.566536082966522 21.142640191021204 C 8.218534602863983 20.448649483623743 6.16653598759909 20.862647133770228 7.566536082966522 21.142640191021204 Z M 3.5145343682601005 18.232640343609095 C 4.574535503132537 17.412638741436243 2.254534854634002 17.922642785015345 3.5145343682601005 18.232640343609095 Z M 58.45453371022482 52.602644997539755 C 58.48453630421896 51.65464313596749 57.64253343556662 53.02863987058663 58.45453371022482 52.602644997539755 Z M 52.8745356938674 48.792639809551474 C 53.03453554127951 47.70264347166085 52.154534473164276 48.88664539426827 52.8745356938674 48.792639809551474 Z M 59.994534625752166 52.97265155881905 C 61.48053468678732 52.97864444822335 64.4985362431838 52.512644844951865 61.26453508351584 52.512644844951865 C 60.75653566334982 52.59264667600655 58.30453599904318 52.57263858884835 59.994534625752166 52.97265155881905 Z M 8.780534877522186 20.438653069439173 C 9.984533443196014 20.358649331035853 10.660534038288787 19.112650948467493 8.546534671528534 19.18264301389718 C 5.2665358922316585 18.842639046612025 11.438535823567108 20.306649285259486 8.146534099323944 19.886645394268275 C 7.7025357625319515 20.180638390484095 8.774535312397674 20.51865490049386 8.800535335285858 20.43665035337472 Z M 9.840536250813201 20.97464092344308 C 9.714532985432342 20.20264919370675 9.468534602863983 21.384650307598353 9.840536250813201 20.97464092344308 Z M 11.100535526020721 17.622641640606165 C 11.620535983784393 16.974642830791712 10.38053335164328 17.448651390972376 11.100535526020721 17.622641640606165 Z M 7.100534095509246 10.934644776287318 C 9.24853528950949 10.204650002422571 12.184535159809784 9.38464840024972 13.200534000141815 11.294640618267298 C 12.168535365803436 10.054649430217982 12.784533633930877 8.830646592083216 13.76053537343283 10.646642762127161 C 15.140534534199432 12.482647973003626 15.828534259541229 9.810645180645228 14.93253530476828 9.194646912517786 C 15.952534808857635 10.46264846891427 17.112534656269744 11.06265075773263 15.616537227375701 9.274648743572474 C 17.246535434467987 7.314643937053919 12.356535091145233 9.53064449399972 11.244537486775116 9.508648949566126 C 10.710536136372284 9.74864872068429 5.724536075337127 10.78064735502267 7.104535236103729 10.934644776287318 Z M 8.360533847553924 8.524645882549525 C 9.584532870991424 7.600643235149622 12.59653390858908 9.07465084165597 10.664534702046112 7.6046486672785285 C 10.474533214314178 7.438644486370325 6.434534206135467 8.718644219341517 8.360533847553924 8.524645882549525 Z M 12.824534549458221 8.708647805156946 C 14.256534709675506 8.7446442422297 12.204535617573455 6.782644349041224 13.912534847004608 7.672644692363978 C 13.6325341603591 6.75664432615304 11.924534930927948 6.58665092557931 11.088537349446014 6.21864612669015 C 10.616536273701385 7.054643708172083 12.048535480244354 8.718644219341517 12.82253660176535 8.708647805156946 Z M 9.144535197956756 4.65665014356637 C 9.640534534199432 3.984646874370813 8.27453626607199 4.996645050945521 9.144535197956756 4.65665014356637 Z M 10.960535182697967 5.092643338146448 C 13.270536555988983 4.786650258007288 10.372535838825897 4.098643380108118 10.49453367207785 5.06864555448556 L 10.960535182697967 5.092643338146448 Z M 7.552534713490203 2.4326477822687624 C 5.926536693318084 0.3086481866266726 10.612534656269744 2.788645821514368 8.958534373982147 0.5666456994440554 C 7.566536082966522 -0.5393561544988157 6.23253358815451 1.814646798076868 7.552534713490203 2.4326477822687624 Z M 28.42053522084494 13.672640877666712 C 29.166535510761932 12.352647858562708 25.340535297138885 11.89264114469552 27.92053522084494 13.204640465679407 C 28.156535281880096 13.284642296734095 28.10453523610373 13.764641838970423 28.42053522084494 13.672640877666712 Z" stroke="none" stroke-linejoin="miter" stroke-linecap="butt" fill-rule="nonzero" stroke-width="2.0000011442668613" fill="#e0e0e0"/><g transform="translate(0 0)" class="Text.cls"><rect x="0" y="0" width="63.992263310406656" height="57.09265430540108" fill="none" stroke="none"/><text fill="#000000" fill-opacity="1"/></g></g></svg><svg id="l2nhg394wl" height="777.2399783806807" overflow="visible" v:setup="{&quot;paper&quot;:&quot;LEGAL&quot;,&quot;unit&quot;:&quot;cm&quot;,&quot;scale&quot;:{&quot;from&quot;:&quot;1&quot;,&quot;to&quot;:&quot;1&quot;},&quot;width&quot;:&quot;14in&quot;,&quot;height&quot;:&quot;8.5in&quot;,&quot;margin&quot;:{&quot;top&quot;:&quot;1&quot;,&quot;bottom&quot;:&quot;1&quot;,&quot;left&quot;:&quot;1&quot;,&quot;right&quot;:&quot;1&quot;}}" viewBox="0 0 1344 816" width="1280.1599643917093" class="" style="display: none;"/><svg id="l2nhg3fxwv" height="777.2399783806807" overflow="visible" v:setup="{&quot;paper&quot;:&quot;LEGAL&quot;,&quot;unit&quot;:&quot;cm&quot;,&quot;scale&quot;:{&quot;from&quot;:&quot;1&quot;,&quot;to&quot;:&quot;1&quot;},&quot;width&quot;:&quot;14in&quot;,&quot;height&quot;:&quot;8.5in&quot;,&quot;margin&quot;:{&quot;top&quot;:&quot;1&quot;,&quot;bottom&quot;:&quot;1&quot;,&quot;left&quot;:&quot;1&quot;,&quot;right&quot;:&quot;1&quot;}}" viewBox="0 0 1344 816" width="1280.1599643917093" class="" style="display: none;"/><svg id="l2nhg3ldx5" height="777.2399783806807" overflow="visible" v:setup="{&quot;paper&quot;:&quot;LEGAL&quot;,&quot;unit&quot;:&quot;cm&quot;,&quot;scale&quot;:{&quot;from&quot;:&quot;1&quot;,&quot;to&quot;:&quot;1&quot;},&quot;width&quot;:&quot;14in&quot;,&quot;height&quot;:&quot;8.5in&quot;,&quot;margin&quot;:{&quot;top&quot;:&quot;1&quot;,&quot;bottom&quot;:&quot;1&quot;,&quot;left&quot;:&quot;1&quot;,&quot;right&quot;:&quot;1&quot;}}" viewBox="0 0 1344 816" width="1280.1599643917093" class="" style="display: none;"/><svg id="l2nhg3zsxf" height="777.2399783806807" overflow="visible" v:setup="{&quot;paper&quot;:&quot;LEGAL&quot;,&quot;unit&quot;:&quot;cm&quot;,&quot;scale&quot;:{&quot;from&quot;:&quot;1&quot;,&quot;to&quot;:&quot;1&quot;},&quot;width&quot;:&quot;14in&quot;,&quot;height&quot;:&quot;8.5in&quot;,&quot;margin&quot;:{&quot;top&quot;:&quot;1&quot;,&quot;bottom&quot;:&quot;1&quot;,&quot;left&quot;:&quot;1&quot;,&quot;right&quot;:&quot;1&quot;}}" viewBox="0 0 1344 816" width="1280.1599643917093" class="" style="display: none;"/><svg id="l2nhg48rxp" height="777.2399783806807" overflow="visible" v:setup="{&quot;paper&quot;:&quot;LEGAL&quot;,&quot;unit&quot;:&quot;cm&quot;,&quot;scale&quot;:{&quot;from&quot;:&quot;1&quot;,&quot;to&quot;:&quot;1&quot;},&quot;width&quot;:&quot;14in&quot;,&quot;height&quot;:&quot;8.5in&quot;,&quot;margin&quot;:{&quot;top&quot;:&quot;1&quot;,&quot;bottom&quot;:&quot;1&quot;,&quot;left&quot;:&quot;1&quot;,&quot;right&quot;:&quot;1&quot;}}" viewBox="0 0 1344 816" width="1280.1599643917093" class="" style="display: none;"/><svg id="l2nhg4g2xz" height="777.2399783806807" overflow="visible" v:setup="{&quot;paper&quot;:&quot;LEGAL&quot;,&quot;unit&quot;:&quot;cm&quot;,&quot;scale&quot;:{&quot;from&quot;:&quot;1&quot;,&quot;to&quot;:&quot;1&quot;},&quot;width&quot;:&quot;14in&quot;,&quot;height&quot;:&quot;8.5in&quot;,&quot;margin&quot;:{&quot;top&quot;:&quot;1&quot;,&quot;bottom&quot;:&quot;1&quot;,&quot;left&quot;:&quot;1&quot;,&quot;right&quot;:&quot;1&quot;}}" viewBox="0 0 1344 816" width="1280.1599643917093" class="" style="display: none;"/><svg id="l2nhg4yuy9" height="777.2399783806807" overflow="visible" v:setup="{&quot;paper&quot;:&quot;LEGAL&quot;,&quot;unit&quot;:&quot;cm&quot;,&quot;scale&quot;:{&quot;from&quot;:&quot;1&quot;,&quot;to&quot;:&quot;1&quot;},&quot;width&quot;:&quot;14in&quot;,&quot;height&quot;:&quot;8.5in&quot;,&quot;margin&quot;:{&quot;top&quot;:&quot;1&quot;,&quot;bottom&quot;:&quot;1&quot;,&quot;left&quot;:&quot;1&quot;,&quot;right&quot;:&quot;1&quot;}}" viewBox="0 0 1344 816" width="1280.1599643917093" class="" style="display: none;"/><svg id="l2phzv2h17r" height="420.00000000000006" overflow="visible" v:setup="{&quot;paper&quot;:&quot;CUSTOM&quot;,&quot;unit&quot;:&quot;cm&quot;,&quot;scale&quot;:{&quot;from&quot;:&quot;1&quot;,&quot;to&quot;:&quot;1&quot;},&quot;width&quot;:&quot;297mm&quot;,&quot;height&quot;:&quot;210mm&quot;,&quot;margin&quot;:{&quot;top&quot;:&quot;1&quot;,&quot;bottom&quot;:&quot;1&quot;,&quot;left&quot;:&quot;1&quot;,&quot;right&quot;:&quot;1&quot;}}" viewBox="0 0 1122.5197162628174 793.7008094787598" width="594.0000000000001" class="" style="display: none;"/><svg id="l2t0yxwr1fi" height="756" overflow="visible" v:setup="{&quot;paper&quot;:&quot;CUSTOM&quot;,&quot;unit&quot;:&quot;cm&quot;,&quot;scale&quot;:{&quot;from&quot;:&quot;1&quot;,&quot;to&quot;:&quot;1&quot;},&quot;width&quot;:&quot;297mm&quot;,&quot;height&quot;:&quot;210mm&quot;,&quot;margin&quot;:{&quot;top&quot;:&quot;1&quot;,&quot;bottom&quot;:&quot;1&quot;,&quot;left&quot;:&quot;1&quot;,&quot;right&quot;:&quot;1&quot;}}" viewBox="0 0 1122.5197162628174 793.7008094787598" width="1069.2" class="" style="display: none;"/><svg id="l36bxhgt5ua" height="518.1599855871204" overflow="visible" v:setup="{&quot;paper&quot;:&quot;LEGAL&quot;,&quot;unit&quot;:&quot;cm&quot;,&quot;scale&quot;:{&quot;from&quot;:&quot;1&quot;,&quot;to&quot;:&quot;1&quot;},&quot;width&quot;:&quot;14in&quot;,&quot;height&quot;:&quot;8.5in&quot;,&quot;margin&quot;:{&quot;top&quot;:&quot;1&quot;,&quot;bottom&quot;:&quot;1&quot;,&quot;left&quot;:&quot;1&quot;,&quot;right&quot;:&quot;1&quot;}}" viewBox="0 0 1344 816" width="853.4399762611395" class="" style="display: none;"/><svg id="l36bxvzi5w8" height="518.1599855871204" overflow="visible" v:setup="{&quot;paper&quot;:&quot;LEGAL&quot;,&quot;unit&quot;:&quot;cm&quot;,&quot;scale&quot;:{&quot;from&quot;:&quot;1&quot;,&quot;to&quot;:&quot;1&quot;},&quot;width&quot;:&quot;14in&quot;,&quot;height&quot;:&quot;8.5in&quot;,&quot;margin&quot;:{&quot;top&quot;:&quot;1&quot;,&quot;bottom&quot;:&quot;1&quot;,&quot;left&quot;:&quot;1&quot;,&quot;right&quot;:&quot;1&quot;}}" viewBox="0 0 1344 816" width="853.4399762611395" class="" style="display: none;"/><svg id="l36bxwnv5wi" height="518.1599855871204" overflow="visible" v:setup="{&quot;paper&quot;:&quot;LEGAL&quot;,&quot;unit&quot;:&quot;cm&quot;,&quot;scale&quot;:{&quot;from&quot;:&quot;1&quot;,&quot;to&quot;:&quot;1&quot;},&quot;width&quot;:&quot;14in&quot;,&quot;height&quot;:&quot;8.5in&quot;,&quot;margin&quot;:{&quot;top&quot;:&quot;1&quot;,&quot;bottom&quot;:&quot;1&quot;,&quot;left&quot;:&quot;1&quot;,&quot;right&quot;:&quot;1&quot;}}" viewBox="0 0 1344 816" width="853.4399762611395" class="" style="display: none;"/><svg id="l36bxxb75ws" height="518.1599855871204" overflow="visible" v:setup="{&quot;paper&quot;:&quot;LEGAL&quot;,&quot;unit&quot;:&quot;cm&quot;,&quot;scale&quot;:{&quot;from&quot;:&quot;1&quot;,&quot;to&quot;:&quot;1&quot;},&quot;width&quot;:&quot;14in&quot;,&quot;height&quot;:&quot;8.5in&quot;,&quot;margin&quot;:{&quot;top&quot;:&quot;1&quot;,&quot;bottom&quot;:&quot;1&quot;,&quot;left&quot;:&quot;1&quot;,&quot;right&quot;:&quot;1&quot;}}" viewBox="0 0 1344 816" width="853.4399762611395" class="" style="display: none;"/><svg id="l36bxzq75x2" height="518.1599855871204" overflow="visible" v:setup="{&quot;paper&quot;:&quot;LEGAL&quot;,&quot;unit&quot;:&quot;cm&quot;,&quot;scale&quot;:{&quot;from&quot;:&quot;1&quot;,&quot;to&quot;:&quot;1&quot;},&quot;width&quot;:&quot;14in&quot;,&quot;height&quot;:&quot;8.5in&quot;,&quot;margin&quot;:{&quot;top&quot;:&quot;1&quot;,&quot;bottom&quot;:&quot;1&quot;,&quot;left&quot;:&quot;1&quot;,&quot;right&quot;:&quot;1&quot;}}" viewBox="0 0 1344 816" width="853.4399762611395" class="" style="display: none;"/></svg>